<?xml version="1.0" encoding="utf-8" ?>
<svg baseProfile="full" height="94.50172866616413" version="1.1" width="118.62910461379329" xmlns="http://www.w3.org/2000/svg" xmlns:ev="http://www.w3.org/2001/xml-events" xmlns:xlink="http://www.w3.org/1999/xlink"><defs /><rect fill="white" height="94.50172866616413" width="118.62910461379329" x="0" y="0" /><path d="M25,25 m0.0,0.0 m15.950570392285073,24.864050984203914 l-0.08172293193638325,2.501040995121002 -0.8130398392677307,-0.07568361703306437 l-1.5808755159378052,0.42205173522233963 -1.0918129980564117,0.44564832001924515 l0.00021690446374122985,1.9740910828113556 0.3806447982788086,1.6623052954673767 l3.0012711882591248,4.540255665779114 2.089497745037079,1.9911211729049683 l0.7690506428480148,0.46342432498931885 2.599010467529297,0.5781608819961548 l2.3697851598262787,-0.00021182529962970875 1.5098801255226135,-0.10761694982647896 l1.1203619837760925,-0.6249332427978516 0.597904622554779,-0.7624360918998718 l-2.0366337594168726e-05,-1.9795921444892883 -1.0431131720542908,-4.181184768676758 l-1.163005456328392,-2.415642738342285 -0.7271556556224823,-0.8202066272497177 l-3.040333092212677,-1.9238482415676117 -2.632782459259033,-0.8760002255439758 l-1.758127510547638,-0.0003021759039256722 -0.9902367740869522,0.41107308119535446 m1.7334198951721191,4.425968825817108 l-0.0001288443945668405,1.9364067912101746 0.4472377151250839,1.5224589407444 l0.5632384121417999,0.5959944054484367 0.49773115664720535,-0.0002526711978134699 l0.3592278063297272,-0.962744727730751 -3.483929049252765e-05,-2.2422203421592712 m2.8266093134880066,1.187010481953621 l-0.0002464687349856831,1.2376798689365387 0.7554697245359421,2.14670866727829 l0.7586368173360825,0.7614504545927048 0.7960096746683121,0.3007981926202774 l0.48948846757411957,-0.9264153987169266 2.36301431755237e-06,-1.5566588938236237 l-0.836825892329216,-1.570146083831787 -0.6571697443723679,-0.4874534532427788 m-5.388083457946777,-7.16333270072937 l-0.00021429268599604256,2.549660801887512 0.40546100586652756,0.7892850041389465 l0.5455189943313599,-0.5388292670249939 0.13417717069387436,-0.8280106633901596 m-4.556368589401245,-4.255724549293518 l0.6798806041479111,-0.525394044816494 0.2614561840891838,-1.0484109818935394 l-0.40746644139289856,-0.0003133620339212939 -0.5150153115391731,0.6723843514919281 m-3.150530159473419,-2.693946361541748 l0.818815678358078,-0.722007155418396 1.4630164206027985,-0.915190726518631 l1.4877189695835114,-0.8184168487787247 1.6731363534927368,-1.7963197827339172 l1.7815670371055603,-1.7620617151260376 1.0960966348648071,-0.7115104794502258 l4.432124495506287,-0.00016411378965131007 1.460987776517868,0.8873489499092102 l1.0567063838243484,1.2121401727199554 2.006996273994446,2.5965824723243713 l0.3486217185854912,0.83842433989048 1.1864980310201645,4.2352911829948425 l-0.00025035753424162976,3.0952033400535583 -0.7532079517841339,3.091740310192108 l-1.099693402647972,1.6648361086845398 -1.4493247866630554,1.5770022571086884 l-1.3170957565307617,0.8037371933460236 -2.2765806317329407,0.5005530267953873 l-1.1775518953800201,-0.00042623116314643994 m-8.107357621192932,-15.85362195968628 l3.125329158137902e-05,1.0701145976781845 0.25979863479733467,1.9395595788955688 l0.7681754976511002,0.7902424037456512 1.3534386456012726,0.7455096393823624 l1.8493802845478058,-0.00036664288927568123 0.7185202836990356,-0.6596338748931885 l0.2233291231095791,-0.7727447897195816 -0.43012604117393494,-0.8099005371332169 l-1.7900586128234863,-1.2213925272226334 -2.9459089040756226,-0.14048979617655277 l-0.3045916184782982,-0.04111494403332472 m14.084889888763428,-0.4402679204940796 l0.7058881223201752,0.7089605182409286 1.34187251329422,1.9690504670143127 l0.6380578875541687,0.526808388531208 0.13429269194602966,-2.194687795054051e-05 l0.5664682388305664,-1.3464128971099854 0.046865399926900864,-1.6190710663795471 l-0.65420962870121,-0.8317843079566956 -0.8029554784297943,-0.229231845587492 l-2.2793743014335632,-0.00020903877157252282 -0.5334741622209549,0.4380626231431961 m-10.867879390716553,0.5854296311736107 l-0.32735835760831833,-0.7894612848758698 0.14597538858652115,-1.8093182146549225 l1.552349179983139,-4.896621406078339 0.00027754149414249696,1.576550304889679 l6.490245596069144e-05,1.9191458821296692 0.2625666745007038,0.8653806149959564 m11.149319410324097,3.5202324390411377 l1.6690905392169952,-0.9490881115198135 0.8700811117887497,-0.48232588917016983 l0.6928019970655441,-0.6045052036643028 2.5469863414764404,-0.7156854122877121 l0.1256917417049408,2.4276234209537506 -2.1463270485401154,2.556796669960022 m3.5933473706245422,4.8539623618125916 l2.9478713870048523,-0.6803113222122192 5.91513991355896,-1.2700137495994568 l14.981738328933716,-0.28022339567542076 2.103438526391983,0.6843675673007965 l3.260977268218994,2.6590004563331604 1.879076510667801,2.647627890110016 l1.4848926663398743,3.0876681208610535 -0.0002502158713468816,4.742435812950134 l-0.5124033614993095,1.1668474972248077 -2.116790860891342,2.6990890502929688 l-1.7315864562988281,1.3124729692935944 -2.101721912622452,0.955573171377182 l-1.4883047342300415,0.3780217096209526 -5.879952311515808,0.9065143018960953 l-5.657533407211304,-0.0002985440005431883 -2.086593359708786,0.024516729172319174 l-14.027706384658813,-2.5910282135009766 -2.417343705892563,-1.0175636410713196 l-1.953609585762024,-1.4577612280845642 -1.8272508680820465,-2.203252911567688 l-0.8358614146709442,-1.7868700623512268 -0.3213498741388321,-1.7786505818367004 l-0.00025409241061424837,-1.0273427516222 " fill="none" stroke="black" stroke-width="1" /></svg>