<?xml version="1.0" encoding="utf-8" ?>
<svg baseProfile="full" height="91.06740585496368" version="1.1" width="163.04446979906174" xmlns="http://www.w3.org/2000/svg" xmlns:ev="http://www.w3.org/2001/xml-events" xmlns:xlink="http://www.w3.org/1999/xlink"><defs /><rect fill="white" height="91.06740585496368" width="163.04446979906174" x="0" y="0" /><path d="M36.67499862385796,25 m0.0,0.0 m73.34270672647165,10.87305124285308 l4.847236275672913,-1.1259916424751282 -0.6316975504159927,2.8028160333633423 l11.361494064331055,9.290584921836853 6.130826473236084,-0.00030556737328879535 l1.6801384091377258,-0.23845067247748375 0.26874734088778496,0.872458890080452 l3.032976984977722,2.450914829969406 1.3370424509048462,3.8720420002937317 l-0.7573211193084717,2.670196294784546 -1.4994324743747711,1.0735094547271729 l-4.287137985229492,3.0168259143829346 -5.900154113769531,-0.3545110672712326 l-2.084799110889435,-1.4258962869644165 -11.69127106666565,1.7001265287399292 l-1.7466600239276886,-0.5019368231296539 -4.551222026348114,-1.7028503119945526 l-2.500109076499939,-1.9476300477981567 -2.4962614476680756,-1.449931561946869 l-2.807646095752716,0.0003975439176429063 -1.994512677192688,0.0004981747770216316 l-2.2014227509498596,-1.4995931088924408 -1.1256765574216843,0.0006859502900624648 l-1.0755755007266998,-2.022462487220764 -3.882814943790436,-2.4002045392990112 l-1.9390635192394257,0.0005206490459386259 -3.192099928855896,0.12698885053396225 l-1.3982059061527252,-0.8475987613201141 0.00015610306945745833,-1.4871889352798462 l0.6397660076618195,-1.1245720088481903 1.8112783133983612,-4.250101447105408 l-0.097099170088768,-1.6446073353290558 -2.870755195617676,0.0007080563955241814 l-1.1129090189933777,-3.0825307965278625 -1.742502599954605,-1.6054773330688477 l-1.7925085127353668,0.0004645908484235406 -1.8465544283390045,0.9222397953271866 l-1.5808257460594177,0.000606887842877768 0.0003913169348379597,0.8028533309698105 l-0.3754708543419838,0.0002933299219876062 -0.3595813736319542,0.27830224484205246 l-0.9121915698051453,2.91439026594162 -1.6762758791446686,2.990942597389221 l-1.1109563708305359,0.9376771003007889 -0.6083223968744278,0.0001492614046583185 m2.1052880585193634,-7.567389011383057 l-0.8238067477941513,-1.4404626190662384 -2.3081985116004944,-1.5652985870838165 l-4.579780101776123,-1.6346429288387299 -2.4887439608573914,0.00012773524758813437 l-6.631032228469849,1.0339584946632385 -3.5858097672462463,2.7122318744659424 l-2.377568930387497,4.177170395851135 0.00044736036215908825,3.0840542912483215 l0.7357747107744217,1.8201927840709686 3.875051438808441,2.5010493397712708 l7.2429293394088745,-4.377909590402851e-05 1.7860805988311768,-0.5343978479504585 l1.750473827123642,-2.0648743212223053 m-10.748816728591919,-6.8934279680252075 l0.6096622347831726,-0.00014050915524421725 0.9579438716173172,-1.0913335531949997 l0.9618452191352844,-0.8113765716552734 9.995741493185051e-05,-0.024861646816134453 l-0.4812677204608917,-1.0620582848787308 -0.5044600740075111,-1.8211264887213474e-05 m-5.205327868461609,2.103205919265747 l-0.1359815150499344,-0.7034265995025635 0.44001664966344833,-1.2855888903141022 l0.6186741963028908,0.0003281368117313832 0.2716629393398762,0.42680438607931137 l0.6590951234102249,-0.0001604336102900561 -0.12438482604920864,-1.0782165825366974 l-0.8174611628055573,-0.9270113706588745 -0.5125774815678596,-0.00024069398932624608 l0.38397789001464844,0.5061350017786026 0.7997675240039825,-0.7398582249879837 l-0.79745814204216,0.0002928602771135047 m-5.353970527648926,4.92077499628067 l2.1935296058654785,-0.0001263678313989658 0.00023155766029958613,0.6502829492092133 l0.594337098300457,-6.773272161808563e-05 0.0002535670864745043,-0.3759973496198654 l0.38430433720350266,-0.22554224357008934 m-5.9479522705078125,-0.057818833738565445 l8.46419879962923e-05,0.22257037460803986 0.9873072057962418,-7.177442512329435e-05 l-0.008059869869612157,-1.36110320687294 -0.9632003307342529,-0.5903301760554314 l-0.460117906332016,-0.27654731646180153 m-0.6379478424787521,3.3615297079086304 l0.497751384973526,-1.0803551971912384 1.829691231250763,6.730339919158723e-05 l-0.7051179558038712,-1.1938270926475525 -0.4462117329239845,-0.0002590009717096109 l-0.6820426136255264,0.2698766626417637 0.2635440044105053,0.6334419548511505 l0.00010074519195768517,0.4097401350736618 0.0004125985287828371,-0.39498690515756607 m-2.883448004722595,1.6004760563373566 l0.9112265706062317,-0.07606679573655128 0.46448230743408203,-0.9082774817943573 l0.0003910741361323744,-0.006097323494032025 -0.4642016813158989,-1.1517807096242905 l4.356788394943578e-05,0.8553373068571091 m0.16164762899279594,-1.1226438730955124 l-0.00023542659619124606,0.5382759496569633 0.2499007247388363,0.2749868109822273 l0.30546054244041443,-1.668836623430252 -0.6593341380357742,-0.7023971527814865 l-0.6434550136327744,-0.00025420111342100427 m-2.273366302251816,1.935029774904251 l-0.4699675366282463,-0.36351118236780167 0.0999316107481718,0.5576321110129356 l1.634303629398346,0.5694974958896637 0.15577188692986965,-1.6400203108787537 l-1.170983910560608,-0.7329996675252914 m1.9821596145629883,0.0023448324645869434 l0.2859550528228283,-0.14071482233703136 -0.8713223040103912,-1.079687625169754 l-0.20050449296832085,0.3622540086507797 0.00035427809052634984,1.4550687372684479 m-6.306501030921936,2.5889241695404053 l0.27305688709020615,0.346624031662941 0.7043026387691498,-0.8461745828390121 l-5.9630638133967295e-05,0.592801533639431 0.22486478090286255,-1.0986202955245972 l0.1251566130667925,-0.5202358588576317 m0.2878182753920555,2.8046444058418274 l-0.0046669464791193604,0.2052290365099907 0.17073774710297585,-1.0564635694026947 l0.0002171945925510954,-0.03868549596518278 0.00016902806237339973,0.7336394488811493 l0.6835676729679108,-1.1292948573827744 -0.4353737086057663,-0.498541034758091 l-0.2234187163412571,0.4470556974411011 m-1.1467868834733963,1.824171096086502 l-0.2228652685880661,-0.31312473118305206 -0.534568540751934,-0.42548034340143204 l0.19774524495005608,0.10411065071821213 1.1458709090948105,0.26099707931280136 l0.2818726934492588,-0.7963377982378006 -0.714934766292572,-0.5792688578367233 l1.7460864683016553e-05,1.2706468999385834 0.7105283439159393,-1.2331056594848633 l-0.7959534227848053,-0.3453373908996582 -0.3442378342151642,-0.2617418020963669 l0.28260650113224983,1.1933285742998123 m-5.4193150997161865,0.4869331046938896 l-0.4564240202307701,-0.2150547318160534 0.8278598636388779,-0.16020232811570168 l6.345255314954557e-05,0.4681108146905899 0.5609068274497986,-1.3028152287006378 l0.362311489880085,1.2610724568367004 m4.751983880996704,-1.070396900177002 l0.000484767988382373,0.5285158008337021 9.947021681000479e-05,1.304009109735489 l0.35705264657735825,0.00022900108888279647 0.9314003586769104,-1.6269172728061676 l0.00021989304514136165,0.7450421154499054 0.47083891928195953,0.5244595557451248 l0.5802266672253609,-0.10220246389508247 1.5042407810688019,-2.7852296829223633 l0.8064870536327362,0.8831197023391724 2.500278949737549,0.23890458047389984 l0.27910279110074043,-1.8600189685821533 -0.24717608466744423,0.00045222084736451507 l-0.7863599807024002,-0.2633782848715782 m-3.8175171613693237,20.390183925628662 l-0.8443079143762589,3.0139294266700745 1.1332860589027405,3.86750727891922 l2.4481068551540375,1.7515480518341064 2.1314838528633118,0.46185143291950226 l1.5347571671009064,-1.221674457192421 0.28527628630399704,-2.757335901260376 l-1.2465562671422958,-2.871820628643036 -0.9026777744293213,0.00047753146645845845 m-1.088167354464531,0.0011492981138871983 l0.000536625157110393,2.77679443359375 1.6293518245220184,0.2906513959169388 l0.00011955674381169956,-1.4093683660030365 -1.0063905268907547,-1.4554545283317566 l-1.376369148492813,-0.000335576078214217 m4.675950706005096,-1.6981016099452972 l-0.5944964662194252,-0.6938318163156509 -0.7632593810558319,0.278994906693697 l-0.00033577936846995726,1.1548171192407608 0.5076416209340096,9.703128853288945e-05 l0.06136095616966486,-1.5818022191524506 -1.0006168484687805,-0.1715932972729206 m3.838006556034088,-1.770964115858078 l0.04268478602170944,1.3164111971855164 0.204539205878973,-0.9772392362356186 l0.00023712205802439712,-0.6059218198060989 m-7.068073153495789,4.800747931003571 l0.001146560098277405,0.6702066957950592 1.070394515991211,-0.729847326874733 l0.3549656644463539,-0.9829281270503998 0.21325942128896713,0.6710342317819595 l0.000256226248893654,0.3421381115913391 -0.046450491063296795,-1.2267499417066574 m3.834114968776703,-0.33101916313171387 l-1.169256940484047,-0.39599455893039703 0.0010497842595214024,1.1725149303674698 l0.5319364741444588,0.5420327559113503 0.719754695892334,-1.5273499488830566 l3.6460612591326935e-05,0.2062617987394333 -0.21582571789622307,-0.9659159928560257 l-0.0033295518369413912,0.9818221628665924 0.1029297523200512,-1.0664863884449005 l-0.9993580728769302,-0.06909444462507963 -0.0006248402496566996,1.3761435449123383 m-0.5426504835486412,2.222740650177002 l1.7811578512191772,-0.0007355301204370335 0.08365875110030174,-1.4028508961200714 l-0.6054044514894485,-0.0757808331400156 0.00040686543798074126,1.0316979140043259 l0.23479150608181953,-1.06158547103405 -0.7485144585371017,0.00019461724150460213 l0.00014696472135256045,1.3392293453216553 1.061570718884468,-1.4809206128120422 l-1.3293997943401337,4.8078197778522735e-06 0.3091324493288994,-0.16676677390933037 l-0.20522994920611382,-0.5089818686246872 -0.6340929865837097,0.00021824136638315395 l0.00014089082469581626,1.3591963052749634 1.3625440001487732,-0.9896316379308701 l-0.36083441227674484,-0.5514903739094734 m-8.946709632873535,2.5687631964683533 l1.1158783733844757,1.0817930102348328 0.3021474927663803,0.13688349165022373 l0.08504580706357956,-1.8232052028179169 -0.6881172209978104,0.29076073318719864 l0.22904660552740097,2.1264612674713135 1.4312797784805298,-0.9223576635122299 l0.29408086091279984,-1.367226243019104 -1.5044501423835754,-0.0505921570584178 l-0.8802347630262375,1.4445862174034119 1.0234740376472473,-1.3004672527313232 l-0.5987934768199921,1.0929414629936218 1.1651849746704102,-1.007959023118019 l-0.2327512763440609,0.8728867769241333 m-0.8693765103816986,1.923983246088028 l-0.08073956705629826,-0.7470471411943436 0.023899427615106106,0.6044244021177292 l0.39858873933553696,6.838442914158804e-05 -0.11484688147902489,-1.454966813325882 l1.0215120017528534,1.423361450433731 -0.1826184056699276,-1.5776170790195465 l-0.6018856540322304,0.36091700196266174 m-5.000792145729065,2.432733327150345 " fill="none" stroke="black" stroke-width="1" /></svg>