<?xml version="1.0" encoding="utf-8" ?>
<svg baseProfile="full" height="131.22908217435565" version="1.1" width="143.56098222074024" xmlns="http://www.w3.org/2000/svg" xmlns:ev="http://www.w3.org/2001/xml-events" xmlns:xlink="http://www.w3.org/1999/xlink"><defs /><rect fill="white" height="131.22908217435565" width="143.56098222074024" x="0" y="0" /><path d="M40.02814793257471,43.229486856487824 m0.0,0.0 m28.11799973913253,-13.883132774261071 l-8.24765682220459,-2.6149457693099976 -3.670404553413391,-1.0708428919315338 l-4.273088574409485,-0.6605654209852219 -5.390516519546509,0.0001367935965390643 l-4.582577645778656,1.7089758813381195 -2.1522144973278046,1.412493884563446 l-3.231942057609558,3.532865047454834 -1.7624014616012573,2.7127623558044434 l-0.9810648113489151,3.2853856682777405 -1.5195415914058685,5.801699757575989 l-0.0002852377474482637,5.299792289733887 1.8690714240074158,4.39662367105484 l3.090696930885315,3.2056522369384766 9.035418629646301,3.7718957662582397 l2.811940610408783,0.2183995023369789 4.716840386390686,-0.5872339755296707 l1.768370121717453,-0.6044599041342735 3.9484578371047974,-2.1999841928482056 l4.997584521770477,-4.844405651092529 2.6313239336013794,-3.7693098187446594 l1.8486708402633667,-4.135265648365021 1.732427030801773,-9.033424854278564 l-3.9751607801008504e-05,-3.8593176007270813 -2.098015993833542,-4.608781039714813 l-1.0221676528453827,-1.1190080642700195 m11.401194334030151,10.439882278442383 l3.3475902676582336,-1.98985755443573 6.44142746925354,-4.334903657436371 l2.2618572413921356,-0.8834780007600784 4.05186265707016,-0.9411899000406265 l6.090822219848633,2.3359737042483175e-05 4.30439829826355,1.6948901116847992 l2.776656746864319,1.895923912525177 4.136878550052643,4.047088325023651 l3.7003451585769653,5.628048777580261 1.5096890926361084,3.6502978205680847 l0.8732274174690247,5.340065360069275 -3.483732825770858e-05,7.943695783615112 l-0.47285906970500946,2.094319611787796 -1.0551129281520844,2.167966216802597 l-3.3986377716064453,4.462429583072662 -3.1668922305107117,2.4408961832523346 l-4.510517716407776,1.8240450322628021 -2.515743672847748,0.5772240459918976 l-6.50637686252594,-6.198804385348922e-05 -3.6365246772766113,-1.052974909543991 l-5.503708124160767,-2.772713601589203 -5.317605137825012,-4.22384113073349 l-6.0799407958984375,-7.273166179656982 -1.5732219815254211,-4.0798139572143555 l-0.4288755729794502,-4.666842520236969 m-14.586915969848633,-4.882709085941315 l-5.936482548713684,1.42729629715177e-05 -2.1943220496177673,1.1951715499162674 l-5.55036723613739,4.543932676315308 -2.904130220413208,4.676504135131836 l-1.7398622632026672,5.282183289527893 -1.1261612176895142,9.080008864402771 l-0.0003937246583518572,8.417022228240967 0.5205539986491203,7.823379635810852 l0.060178544372320175,4.830780029296875 -0.5989633128046989,3.271370530128479 l-1.0876165330410004,1.9961278140544891 -1.3723492622375488,1.4637574553489685 l-1.4679405093193054,0.9682133048772812 -4.97747927904129,0.13268078677356243 l-2.1681320667266846,-0.37144478410482407 -1.2287294119596481,0.4462907835841179 l-2.604048252105713,1.6908124089241028 -0.4317695274949074,1.500960886478424 l3.474131226539612,3.513926863670349 3.922199010848999,2.366480827331543 l3.2853612303733826,0.7100942730903625 4.086421430110931,7.832058145140763e-05 l1.7424032092094421,-0.5780407041311264 5.826582908630371,-3.6374589800834656 l1.2497653812170029,-1.5412595868110657 1.651252657175064,-3.5097119212150574 l0.8164352178573608,-3.288934826850891 0.17740635201334953,-3.2646331191062927 l-0.7270251214504242,-8.52269172668457 0.322699174284935,-5.676451921463013 l0.900728702545166,-3.600904941558838 1.021263375878334,-2.636825740337372 l4.852146804332733,-7.356153726577759 1.2528838217258453,-1.481221318244934 l1.6730855405330658,-1.0494578629732132 1.5644343197345734,-0.4041970521211624 l1.2430047988891602,0.027097566053271294 1.3279792666435242,0.48238277435302734 l2.510972023010254,2.723449468612671 " fill="none" stroke="black" stroke-width="1" /></svg>