<?xml version="1.0" encoding="utf-8" ?>
<svg baseProfile="full" height="95.63254803306336" version="1.1" width="104.39654912799597" xmlns="http://www.w3.org/2000/svg" xmlns:ev="http://www.w3.org/2001/xml-events" xmlns:xlink="http://www.w3.org/1999/xlink"><defs /><rect fill="white" height="95.63254803306336" width="104.39654912799597" x="0" y="0" /><path d="M25,25 m0.0,0.0 m31.884593851864338,21.32128942661552 l-2.4875082075595856,-0.5518604069948196 -1.0693705826997757,-0.49359750002622604 l-3.5450315475463867,-6.221399644346093e-06 -1.1424387246370316,0.9494900703430176 l-1.595410704612732,1.931854784488678 -1.4163996279239655,4.174985885620117 l0.46209197491407394,4.83384907245636 0.4441731423139572,1.733078956604004 l1.3652373850345612,2.9050669074058533 3.0984607338905334,4.40141886472702 l2.9384294152259827,2.516477406024933 1.7012156546115875,1.0204415023326874 l1.4291340112686157,0.5202134698629379 1.8635167181491852,0.36984581500291824 l3.738712966442108,-9.472623787587509e-05 1.5407748520374298,-0.17895344644784927 l3.925999402999878,-1.1813797056674957 4.111050963401794,-2.2106462717056274 l1.3915710151195526,-0.859360471367836 2.2361910343170166,-1.7736172676086426 l1.634390503168106,-2.2569066286087036 1.4940102398395538,-3.303349018096924 l0.39315465837717056,-4.058428406715393 -0.7021013647317886,-2.4265511333942413 l-1.5453435480594635,-1.5986114740371704 -3.49981427192688,-2.64242947101593 l-4.3063536286354065,-1.9071435928344727 -1.263539046049118,-0.3108435496687889 l-5.539402961730957,-0.5508508533239365 -5.022350549697876,4.6448731154669076e-05 l-2.2853559255599976,0.42039670050144196 m-6.378076076507568,2.1064655482769012 l-4.075586730323266e-05,-5.528588891029358 -0.008544633747078478,-3.3637726306915283 l-9.917796887748409e-05,-4.026674926280975 -0.36344826221466064,-5.747723579406738 l-0.027953474782407284,-0.9697995334863663 0.3492419049143791,1.3261868059635162 l0.948261022567749,2.88456529378891 1.46164208650589,3.534463047981262 l2.573685646057129,4.967327415943146 0.608741007745266,1.1142337322235107 l0.43475817888975143,1.1905701458454132 m14.07089114189148,2.51221626996994 l0.9260080754756927,-0.9788072854280472 0.6693653017282486,-1.2551958858966827 l1.5883928537368774,-2.9337602853775024 2.2578300535678864,-3.2969146966934204 l1.875661313533783,-4.020254909992218 1.3166376948356628,-2.1689172089099884 l0.400242879986763,1.3810724020004272 -0.19854571670293808,4.103882014751434 l0.06413979455828667,3.4191545844078064 -0.00024683866286068223,6.798726916313171 m-20.388588905334473,10.216739177703857 l-0.7179804891347885,0.970461368560791 0.0203929771669209,0.7171989232301712 l1.0530141741037369,0.8335104584693909 1.1617941409349442,0.3712400421500206 l1.445271074771881,-0.09588695131242275 0.7405679672956467,-1.1426064372062683 l0.00013217879313742742,-1.7172479629516602 -1.294776052236557,-0.8161920309066772 l-0.9965089708566666,-0.00032115396606968716 -0.6010381877422333,0.5533414334058762 m1.3210541009902954,-1.568158119916916 l-0.15808984637260437,1.045718640089035 6.12366102359374e-05,2.8186506032943726 l1.1036917567253113,0.8045174926519394 2.4840809404850006,6.18453213974135e-05 l0.6680511683225632,-1.2101755291223526 -0.00011451968930487055,-1.7755202949047089 " fill="none" stroke="black" stroke-width="1" /></svg>