<?xml version="1.0" encoding="utf-8" ?>
<svg baseProfile="full" height="83.26252968360677" version="1.1" width="95.38297268334645" xmlns="http://www.w3.org/2000/svg" xmlns:ev="http://www.w3.org/2001/xml-events" xmlns:xlink="http://www.w3.org/1999/xlink"><defs /><rect fill="white" height="83.26252968360677" width="95.38297268334645" x="0" y="0" /><path d="M25,25 m0.0,0.0 m34.036050108734344,25.16093537521556 l-6.400157809257507,0.09133764542639256 -3.7708616256713867,2.7441245317459106 l-0.5544865503907204,3.5547956824302673 0.8590343594551086,0.908309742808342 l1.994360089302063,0.8030267059803009 0.9328324347734451,-0.00013006394510739483 l1.9494026899337769,-1.5216290950775146 -0.0003385299351066351,-1.5430061519145966 l-0.0005223454718361609,-0.08735069073736668 0.9932857751846313,-1.5829528868198395 l-0.3359777107834816,-2.8618288040161133 -0.6544692814350128,-0.6842387467622757 l-0.00035646538890432566,-1.3107503950595856 1.0406707972288132,-0.8473456650972366 l0.8255280554294586,-2.6464271545410156 2.7625954151153564,-1.5279977023601532 l2.7445122599601746,-1.1501214653253555 2.239356189966202,0.00039821345126256347 l-0.0002329144990653731,1.1471905559301376 1.6620837152004242,-1.7261940240859985 l2.3412367701530457,0.0009440978465136141 1.621977537870407,1.2364064902067184 l-0.0002968794433400035,1.0859577357769012 0.23246269673109055,0.0005679921378032304 l0.4225841537117958,1.3511301577091217 0.0001455039637221489,0.9304944425821304 l-0.28578467667102814,0.0004107092900085263 0.35106584429740906,1.1456718295812607 l0.3772730752825737,2.5246334075927734 -1.8236468732357025,2.296069711446762 l-0.8029576390981674,0.00017271437172894366 -1.1820795387029648,2.319531738758087 l-2.889329493045807,-0.6929992884397507 0.27297407388687134,1.2655386328697205 l-0.9564880281686783,0.6036543473601341 -2.518358826637268,-0.00014890090824337676 l-0.6081685796380043,-0.7870101183652878 0.09753263555467129,-1.4201979339122772 l-1.4170335233211517,-9.801339729165193e-05 -0.6343506276607513,-0.7005695998668671 l-1.6692395508289337,-0.00036391174944583327 m-7.230188250541687,-2.3142144083976746 l0.32804355025291443,9.754260645422619e-05 0.8727345615625381,-0.2477560192346573 l-1.3974952697753906,-0.7696684449911118 m0.015650931745767593,2.4728718400001526 l0.7245896756649017,-0.00019741246433113702 m0.5102842301130295,0.05268172826617956 l0.454181507229805,-0.00015640034689567983 -0.00045406617573462427,-0.7838492840528488 l-0.0006195338210090995,0.4561525583267212 m-3.7114062905311584,3.521772623062134 l-0.0004360600360087119,0.42582064867019653 2.32177197933197,-0.0007939934585010633 m-1.1215206980705261,-1.8377642333507538 l0.536387600004673,-3.0160279038682347e-05 -0.0007929627463454381,0.019228807650506496 l-0.0005238926314632408,-0.15902401879429817 " fill="none" stroke="black" stroke-width="1" /></svg>