<?xml version="1.0" encoding="utf-8" ?>
<svg baseProfile="full" height="106.99887069165015" version="1.1" width="99.86948827373908" xmlns="http://www.w3.org/2000/svg" xmlns:ev="http://www.w3.org/2001/xml-events" xmlns:xlink="http://www.w3.org/1999/xlink"><defs /><rect fill="white" height="106.99887069165015" width="99.86948827373908" x="0" y="0" /><path d="M25,27.66740375309837 m0.0,0.0 m33.70897068232637,25.923558748036157 l-0.1891426369547844,0.8320315927267075 0.09052817709743977,2.2350147366523743 l0.2615071088075638,1.074105128645897 0.00036425240978132933,7.277705073356628 l-0.3251217305660248,1.5964913368225098 0.00013049534572928678,10.718319416046143 l-0.23844005540013313,1.2394879013299942 -6.429386871786846e-06,1.52472585439682 m3.2597753405570984,-26.497859954833984 l-0.09005456231534481,0.664636567234993 0.38818463683128357,3.900735378265381 l-3.017440803887439e-05,5.569520592689514 0.6026938930153847,6.192103028297424 l5.817143119202228e-05,3.828187584877014 0.3042343072593212,1.595083326101303 l0.0001491390048613539,4.244635105133057 -0.23775121197104454,1.1893429607152939 l-0.3576132282614708,0.4489235207438469 m-4.482620656490326,-2.2640658915042877 l-1.431141048669815,1.3072152435779572 -0.9284177422523499,0.33629078418016434 l-0.43858766555786133,-0.22937599569559097 0.002766097604762763,-0.2959894947707653 l1.63521409034729,-4.996870757167926e-05 0.35891562700271606,-0.3195706009864807 l0.330655500292778,0.4375319182872772 m3.7404534220695496,0.4635193943977356 l0.11778641492128372,-0.5194258689880371 -0.05736909341067076,-0.12212799862027168 l-0.14398970641195774,0.4581151157617569 m1.6496418416500092,-0.13175399042665958 l-0.04972993861883879,0.8035571873188019 0.362357497215271,0.6285829842090607 l-0.0037022290052846074,0.22226622328162193 0.1933526061475277,-0.5048980191349983 l0.36280862987041473,-0.12757785618305206 m-7.573815584182739,-35.882580280303955 l0.7239682227373123,1.7295831441879272 0.7332040369510651,0.9982751309871674 l1.243080124258995,0.9843624383211136 1.4112825691699982,0.8397171646356583 l4.938146471977234,2.2083789110183716 2.4064014852046967,0.5576243624091148 l3.3120185136795044,-0.00015613268260494806 1.3840565085411072,-0.4749375954270363 l1.195273995399475,-0.8220954984426498 0.9806951135396957,-1.246006041765213 l0.6175412610173225,-2.041347324848175 0.00609477108810097,-1.2419834733009338 l-0.35933028906583786,-0.7651712745428085 -1.3650959730148315,-1.1375633627176285 l-1.9422483444213867,-1.0137088596820831 -2.3344290256500244,-0.6392405927181244 l-5.229378342628479,-0.8443374186754227 -2.0242637395858765,3.872793058690149e-05 l-1.6094756126403809,0.37622734904289246 -2.714149057865143,1.4567573368549347 l-1.5892037749290466,1.1681955307722092 -0.854976698756218,1.1573274433612823 m14.270058870315552,-2.223861515522003 l-0.5361757799983025,-3.7442973256111145 -1.16851307451725,-3.683649003505707 l-0.8198156952857971,-3.600885272026062 -0.42281076312065125,-2.526993155479431 l-7.165411261667032e-05,-3.3652472496032715 0.19023846834897995,-0.508996993303299 l0.7440396398305893,-0.6333537399768829 1.5896274149417877,-0.7387157529592514 l3.0048856139183044,-0.7077544927597046 1.398230493068695,0.17028100788593292 l0.6713175028562546,0.3226299583911896 0.9045235812664032,1.8171150982379913 l0.2917272038757801,1.288880854845047 -0.10081158950924873,2.005534917116165 l-0.32352592796087265,1.1769144982099533 -0.4801572114229202,0.6474641710519791 l-1.0880041122436523,0.5484582856297493 -2.5678181648254395,0.31801972538232803 l-2.339051216840744,-0.14330191537737846 -1.3677333295345306,0.25081465020775795 l-2.1318598091602325,0.14949447475373745 -0.9697985649108887,0.5217231065034866 " fill="none" stroke="black" stroke-width="1" /></svg>