<?xml version="1.0" encoding="utf-8" ?>
<svg baseProfile="full" height="117.2819971293211" version="1.1" width="107.30338495422984" xmlns="http://www.w3.org/2000/svg" xmlns:ev="http://www.w3.org/2001/xml-events" xmlns:xlink="http://www.w3.org/1999/xlink"><defs /><rect fill="white" height="117.2819971293211" width="107.30338495422984" x="0" y="0" /><path d="M25,34.546767361462116 m0.0,0.0 m30.868845130712543,57.73522976785898 l-1.077728420495987,-1.8115375936031342 -0.8052734285593033,-1.9082075357437134 l-1.3721409440040588,-2.8916332125663757 -0.613199919462204,-1.9140753149986267 l-0.9554328769445419,-4.838583767414093 -0.3723050281405449,-4.650128185749054 l-0.32151203602552414,-3.265405595302582 0.08431757800281048,-4.877422451972961 l1.0315477848052979,-5.901973247528076 2.391597330570221,-7.206228971481323 l1.7763888835906982,-4.280363917350769 1.6007500886917114,-2.8057295083999634 l2.0460551977157593,-2.250206172466278 1.0929905623197556,-0.7331650704145432 l1.7078162729740143,-0.7217094302177429 2.2355185449123383,-0.5044245347380638 l2.991097867488861,-0.24419821798801422 2.4731604754924774,0.40755193680524826 l1.8322381377220154,0.8276824653148651 2.5073036551475525,1.95781409740448 l0.8912399411201477,1.0065030306577682 1.4240382611751556,3.021685481071472 l1.1879654973745346,4.206501543521881 0.7015340775251389,5.557835102081299 l-0.04299824591726065,5.03593385219574 -1.9369159638881683,15.058525800704956 l0.04748866893351078,6.046046018600464 0.5184191465377808,4.589581191539764 m-19.861280918121338,-35.5567193031311 l-0.4914170503616333,-0.571322962641716 -0.6578975915908813,-1.5927781164646149 l-1.0216302424669266,-3.646702468395233 -0.45557651668787,-4.641462862491608 l0.0879163108766079,-1.9671811163425446 0.5485199019312859,-2.023409605026245 l1.3272267580032349,-2.2393453121185303 4.064469933509827,-3.7980371713638306 l3.5499173402786255,-1.6821998357772827 3.7961378693580627,-0.749339833855629 l6.2547606229782104,0.2875114977359772 1.2734705209732056,0.4118673503398895 l1.9278520345687866,1.5931490063667297 0.864526554942131,0.9559275209903717 l1.2436547875404358,2.212810665369034 0.5689478665590286,2.703336179256439 l5.7787788136920426e-05,3.1248506903648376 -0.7345731556415558,3.4514299035072327 l-1.1520285159349442,3.2065439224243164 -2.231382429599762,4.2019400000572205 l-1.761397272348404,2.475593686103821 m-14.452821016311646,-16.21456265449524 l-0.3732335567474365,-1.550794392824173 -0.7867546379566193,-2.6875722408294678 l-0.45417338609695435,-1.996355801820755 -0.5858062207698822,-3.7343257665634155 l-0.14989272691309452,-2.7138352394104004 0.22531535476446152,-1.4516806602478027 l1.6851653158664703,4.2320334911346436 1.4900429546833038,3.4312739968299866 m13.89331579208374,0.15647729858756065 l1.386406570672989,-1.8258319795131683 2.3630619049072266,-2.200496196746826 l1.497192233800888,-1.3221114873886108 2.3405946791172028,-1.1130571365356445 l0.17139272764325142,0.8435612916946411 0.0004981295569450594,4.3212854862213135 l-0.6607356667518616,3.711245357990265 -0.4161776974797249,2.8705206513404846 m-15.649744272232056,8.009155988693237 l0.14723810367286205,1.9022874534130096 0.9493787586688995,3.298397660255432 l0.6607489287853241,0.21763866767287254 1.2746119499206543,-3.243156671524048 l0.7481508702039719,-2.204287201166153 0.0345487124286592,-0.6802677363157272 m-8.343684673309326,-5.071978569030762 l-1.2329328060150146,0.005027657025493681 -0.725146010518074,0.4789704456925392 l-0.6337326765060425,1.121135726571083 -0.1668337918817997,1.9974768161773682 l0.6688620150089264,0.8033505827188492 1.20901420712471,0.32743342220783234 l0.8707039803266525,-0.6798577308654785 0.3130730986595154,-0.7856009900569916 l0.00038124788261484355,-1.1107437312602997 -0.4381222650408745,-0.9470511972904205 l-1.1881760507822037,-1.0984677076339722 -0.7213287055492401,-0.013369143707677722 m12.264808416366577,-0.8804977685213089 l-0.7697032392024994,0.31821519136428833 -0.6636261194944382,0.9980186074972153 l-0.35504739731550217,1.5566061437129974 0.0003182724685757421,1.2052663415670395 l0.7336187362670898,0.5282949656248093 1.107088178396225,-0.1486392877995968 l1.7290131747722626,-1.1702828109264374 0.5041581019759178,-0.6554065644741058 l0.28698233887553215,-1.4175428450107574 -0.2208712324500084,-1.2245869636535645 l-0.5961628630757332,-0.6503941863775253 -0.7904404401779175,-0.4281189665198326 l-1.8424691259860992,-0.07964919321238995 m-13.615658283233643,21.773767471313477 l-1.0432063788175583,4.374241828918457 -1.134517416357994,6.256956458091736 l-0.29363106936216354,4.273255169391632 0.00044652166252490133,6.808925271034241 l0.2480396255850792,1.8007302284240723 0.37547435611486435,0.9410291910171509 l0.8867433667182922,0.8815164864063263 0.8701556175947189,0.3579983487725258 l1.631484031677246,0.018882682779803872 1.986909955739975,-0.9784933924674988 l3.633158802986145,-2.8915023803710938 1.2735691666603088,-1.4813238382339478 l1.7975462973117828,-2.8724175691604614 2.2623881697654724,-6.100364327430725 l0.244741290807724,-1.4296987652778625 -0.05624855402857065,-1.4447379112243652 l-1.0452698171138763,-3.574405312538147 -1.2753978371620178,-2.6223224401474 l-0.6839485466480255,-1.5249285101890564 m-11.452789306640625,18.44664454460144 l-0.8174383640289307,3.117723762989044 -1.0285010933876038,2.092297077178955 l-1.3972775638103485,2.0331279933452606 -1.1177236586809158,0.6117335334420204 l-2.0652230083942413,0.6248686835169792 -1.7434975504875183,-0.3181534633040428 l-0.8908683806657791,-0.8737199753522873 -0.3994511812925339,-3.3366674184799194 l0.6959839910268784,-3.877580165863037 1.7934376001358032,-4.315685331821442 l1.5773998200893402,-2.2236858308315277 0.9186670929193497,-0.7026903331279755 " fill="none" stroke="black" stroke-width="1" /></svg>