<?xml version="1.0" encoding="utf-8" ?>
<svg baseProfile="full" height="94.00306798512429" version="1.1" width="115.44531090185046" xmlns="http://www.w3.org/2000/svg" xmlns:ev="http://www.w3.org/2001/xml-events" xmlns:xlink="http://www.w3.org/1999/xlink"><defs /><rect fill="white" height="94.00306798512429" width="115.44531090185046" x="0" y="0" /><path d="M25,25 m0.0,0.0 m59.68506867066026,21.665178909845046 l-0.4115630313754082,1.8007725477218628 6.171805262565613,20.537116527557373 m-11.813130378723145,-24.227991104125977 l2.947458028793335,-0.02049167174845934 m0.2063288912177086,1.407000869512558 l-8.231802582740784,0.0036140030715614557 m-9.202973246574402,-0.7320968806743622 l-10.545226335525513,-0.9742601960897446 -7.412145137786865,1.513588472334959e-05 l-1.6462473571300507,1.1923805624246597 -1.2089809775352478,0.20066598430275917 l-3.1121620535850525,3.3653339743614197 -1.6948667168617249,4.678992033004761 l0.2092023752629757,1.1624051630496979 3.3956795930862427,2.131791412830353 l5.926448106765747,0.0005943512223893777 1.999543458223343,-0.9308215975761414 l6.12058162689209,-0.00010929242307611275 1.1285141855478287,-0.6083525717258453 l3.1684610247612,-8.093562428257428e-05 m-9.310304522514343,-9.010019898414612 l0.0006974214920774102,-0.8421715348958969 1.5025214850902557,0.0005836667332914658 l0.25782670825719833,-0.07458745036274195 0.29537681490182877,0.0003208633279427886 l0.11378547176718712,-0.6407762318849564 0.7656531780958176,0.0005020639218855649 l0.3948735073208809,0.0003081176328123547 0.6151944771409035,0.00038447869883384556 l-0.6397811323404312,0.21194282919168472 0.3594261407852173,1.0822654515504837 l0.3206886351108551,0.0003611337160691619 -4.2654892240534537e-05,-0.5230971798300743 l0.7841978222131729,0.0004904424349660985 -5.693407274520723e-05,0.0365714100189507 l-0.15242761000990868,-1.0346496850252151 -0.538923405110836,0.24024751037359238 l-0.0001256424638995668,0.15009756200015545 0.889018252491951,6.155417850095546e-05 l-0.00010177561307500582,-0.2022133767604828 -0.29868878424167633,0.0003708519579959102 l0.4517985135316849,-0.503111220896244 0.21745307371020317,0.0005560404315474443 l-0.0005407259232015349,0.467684268951416 -0.2643139287829399,0.23655682802200317 l0.3653697669506073,-0.7267466187477112 0.2243945188820362,0.0004893726872978732 l-6.816005679866066e-06,0.4298821836709976 -0.3174418956041336,-0.7657890766859055 l-0.3128524497151375,0.23099016398191452 0.2670060284435749,-0.7383394241333008 l0.3421284258365631,0.0001725513175188098 -0.21963698789477348,0.5888821184635162 l0.03671083599328995,-0.8149468898773193 -0.1409774273633957,0.00031604606192559004 l0.1554107666015625,0.5059955641627312 1.479319166719506e-05,-0.4293099418282509 l0.35001296550035477,-0.31983237713575363 3.501484115986386e-05,0.4475446045398712 l-0.053459322080016136,-0.8536814153194427 -0.1976924017071724,0.00017668358850642107 l-7.058235041768057e-05,0.6110526248812675 0.33461831510066986,-0.8362698554992676 l0.23145848885178566,-0.17402082681655884 -0.536298081278801,-0.4341932013630867 l0.1481353398412466,0.0001091613285097992 0.14395317062735558,0.29827525839209557 l0.058059715665876865,-0.5976538732647896 -0.16284210607409477,0.0003108431337750517 l0.047563277184963226,-0.559472106397152 0.5088237300515175,0.0001018935381580377 l2.4837593173288042e-05,0.8746366202831268 -0.1627509482204914,-0.7620952278375626 l-0.37022627890110016,0.22863024845719337 0.781925693154335,0.00023243910618475638 l-0.00018367552911513485,-0.19319461658596992 -0.31208403408527374,-0.5595390498638153 l-0.496809184551239,0.29000408947467804 0.5623959377408028,-0.8932937681674957 l-0.0037835518014617264,0.00035126555303577334 -0.272062961012125,-0.05937515292316675 l0.10061245411634445,-0.3966084495186806 0.026104887947440147,0.2946973033249378 m-7.797966003417969,4.373607933521271 l1.4067202806472778,-0.039112670347094536 0.8804204314947128,-1.103655993938446 l-1.039712280035019,0.0005960084308753721 -1.517135351896286,-0.9923174232244492 l0.7106073945760727,0.6190738454461098 -0.0001008870003715856,0.7729057222604752 l-0.892539843916893,0.21865788847208023 1.0784243047237396,-0.5407345294952393 l0.19866887480020523,0.0003024407669727225 -1.0708452016115189,-0.17151247709989548 l-0.41944626718759537,-0.8386202156543732 1.610066145658493,0.00030845607398077846 l0.13150549493730068,0.8206091821193695 -0.14496826566755772,0.0005768320625065826 l-0.1381189562380314,-0.736536905169487 0.0174985034391284,0.2339978888630867 l0.45467857271432877,-6.559293524333043e-05 -0.46678170561790466,-0.3097146563231945 l0.00012539293493318837,0.28243090957403183 9.809200491872616e-05,0.6430119276046753 l0.20508848130702972,0.00019686563973664306 -0.18403349444270134,-0.8063246309757233 l-0.015124516794458032,0.00017932479750015773 0.35790350288152695,0.00023358299586107023 l-0.04998211748898029,1.1395147936354988e-06 -0.20703649148344994,-0.2205505408346653 l-0.00013742227565671783,0.06314289756119251 -0.031582978554069996,-0.4419843479990959 l-0.04460534080862999,0.00030211424018489197 -0.030164332129061222,0.49048181623220444 l0.49301642924547195,0.00014464239939115942 -0.261186808347702,-0.7798304408788681 l-0.11571593582630157,0.2188311330974102 0.41505496948957443,0.00020154539015493356 l-5.020735329708259e-06,0.12994996272027493 -0.16418855637311935,-0.43549753725528717 l-0.06359944120049477,9.026195584738161e-05 -0.2610678970813751,-0.3179110214114189 l0.41017837822437286,0.0001714300742605701 -0.4720330238342285,0.6583661586046219 l0.7361625880002975,0.00027030831915908493 -0.29925957322120667,-0.7333832234144211 l-0.09243468753993511,0.0002587564449640922 0.28616776689887047,1.7697832390695112e-05 l0.00010256863788526971,0.35907600075006485 0.6142973527312279,0.00031623978429706767 l-0.28539516031742096,6.48176910544862e-05 -0.4055752605199814,0.00028980373826925643 l0.7103335112333298,-0.48884663730859756 0.03104650415480137,0.0002957957076432649 l-1.184016391634941,0.23365525528788567 0.8516993373632431,-0.23145347833633423 l0.39951276034116745,-0.47788098454475403 0.004681043792515993,0.00018098497093888 l-0.27363987639546394,2.3543896077171667e-05 0.26626531034708023,6.189186933625024e-05 l0.05369624588638544,-0.45603059232234955 0.7024647295475006,0.00018638489564182237 l-0.6840094178915024,0.5534639209508896 0.17526546493172646,0.2248384989798069 l0.38188494741916656,-8.654094017401803e-05 -0.0004057831392856315,-0.5407297983765602 l-0.23637805134058,0.00015956018614815548 0.39788026362657547,-0.3382493183016777 l0.11511615477502346,0.00018250651919515803 -1.1904320120811462,0.4070231691002846 l0.8306777477264404,-0.4500085860490799 0.9312679618597031,0.00022285645172814839 l-0.41322339326143265,-0.00010277193723595701 -0.5649090185761452,0.00022436252038460225 l0.6590817868709564,-0.6253914535045624 -0.398685522377491,0.06905706599354744 l-0.574440248310566,0.5469828844070435 1.662418395280838,0.0001491772218287224 l-0.5841990187764168,-0.00024474997189827263 0.3743724152445793,-0.37810586392879486 l0.1744750700891018,0.0006307837611529976 0.10722440667450428,-0.485127754509449 l-0.0002276866689499002,-0.11073004454374313 -0.06713985931128263,0.0001207415152748581 l0.39025668054819107,0.000278401275863871 0.16275830566883087,0.0004304701360524632 l0.019718115217983723,-0.18222860991954803 -0.4885125532746315,0.00016362429960281588 l-0.00010530121471674647,0.05903104320168495 0.32159965485334396,0.2154187299311161 l-0.35737384110689163,0.0001500589041825151 -0.21148573607206345,-0.613379217684269 l0.6720421463251114,0.00026691073799156584 -0.07171573583036661,0.00027175450668437406 l-0.04119632299989462,-0.6139634922146797 0.14175849966704845,0.00018411024939268827 l-7.480217391275801e-05,0.5043771117925644 0.30485639348626137,0.0002239872992504388 l-0.00020859082724200562,-0.18532857298851013 -0.3406378999352455,-0.29809247702360153 l0.40372680872678757,0.00016416026483057067 -0.08425182662904263,0.00020700999812106602 l-0.2449067309498787,0.23139223456382751 0.18104871734976768,-0.4013616219162941 l-0.13599269092082977,0.00030120070732664317 -0.14466925524175167,0.00032807696698000655 l0.2000955492258072,9.812968528422061e-05 -0.03961011301726103,-0.6205571815371513 l-0.3770139813423157,0.0003031973756151274 -0.00012066586350556463,0.5724119767546654 l0.9623683243989944,0.00016752890587667935 -0.00016400945241912268,-0.04236004315316677 l-0.18879694864153862,-0.5290033668279648 -0.2721017599105835,0.24658365175127983 l0.19689809530973434,0.00027461390345706604 -0.28098128736019135,-0.5127852410078049 l-0.4846557602286339,0.0004034605444758199 0.7078360766172409,-0.4075488820672035 l0.10331743396818638,-0.09087808430194855 -0.746588408946991,0.5956114456057549 l1.0000110417604446,-0.2741125598549843 -0.6726304441690445,-0.5213595554232597 l-0.018293842440471053,0.0001958463508344721 -0.0001475825411034748,0.4031682014465332 l0.6434471905231476,-0.425172783434391 -0.5649527162313461,6.956135621294379e-05 l0.12161033228039742,0.00010290338650520425 0.7695024460554123,0.0001266658364329487 l-0.00020023444449179806,0.45773718506097794 -0.7184525579214096,0.22991137579083443 l-0.26181336492300034,0.00018856890164897777 -0.33215321600437164,-0.5422049760818481 l0.907297357916832,0.0001553362380946055 -0.4180528596043587,0.39579279720783234 l1.0284435003995895,0.00019805334886768833 -0.2923562377691269,-0.8938971161842346 l-0.4117846116423607,0.228794626891613 -0.0001583963785378728,0.6638512015342712 l0.4158267378807068,0.0001734016404952854 -0.00011549204828043003,-0.15583746135234833 l0.05535024218261242,-0.41752632707357407 -0.0003029633080586791,-0.02993546426296234 l0.22646309807896614,0.2008223533630371 -9.920849151967559e-05,0.5728466063737869 l0.5633304640650749,0.00029706532586715184 -0.00018693410311243497,-0.47207754105329514 l-0.8321389555931091,-0.32171908766031265 0.28177419677376747,0.0001462286127207335 l0.11913685128092766,0.00014170585927786306 0.2628226950764656,0.0003238459612475708 l0.22720444947481155,0.0002811653757817112 0.030100408475846052,-0.38638245314359665 l-0.7270948588848114,0.0003308920349809341 9.486482781539962e-06,0.34869737923145294 l0.6504607945680618,-0.15207585878670216 -0.0002316808604518883,0.02962251892313361 l-0.38954418152570724,-0.5669956654310226 -0.18087737262248993,0.00023157905161497183 l0.7967088371515274,0.00016030397091526538 -0.24049295112490654,-0.18003780394792557 l-0.6568482518196106,0.05062095820903778 0.5024097859859467,-0.3929416835308075 l-0.00035966422728961334,0.21236615255475044 -7.16729800842586e-05,0.3030283935368061 l-0.05353032145649195,2.6384186639916152e-05 0.239338930696249,0.35114943981170654 l0.942823737859726,0.00043161675421288237 -0.0003335680958116427,-0.3485683351755142 l-0.277886800467968,0.0003967948941863142 -0.2668696828186512,-0.428607277572155 " fill="none" stroke="black" stroke-width="1" /></svg>