<?xml version="1.0" encoding="utf-8" ?>
<svg baseProfile="full" height="112.71056541994767" version="1.1" width="107.2699111700058" xmlns="http://www.w3.org/2000/svg" xmlns:ev="http://www.w3.org/2001/xml-events" xmlns:xlink="http://www.w3.org/1999/xlink"><defs /><rect fill="white" height="112.71056541994767" width="107.2699111700058" x="0" y="0" /><path d="M25,31.14578047696341 m0.0,0.0 m40.63502726729894,-6.1457804769634095 l-2.2783702611923218,0.31532708555459976 -1.91192165017128,0.4161984473466873 l-2.6484650373458862,0.7689034938812256 -2.117846757173538,0.8104909956455231 l-1.4380545914173126,1.053742989897728 -2.3793944716453552,2.6940348744392395 l-1.007813885807991,1.7115968465805054 -0.7236457616090775,2.348136454820633 l0.0001378186971123796,3.1815800070762634 0.7493507862091064,2.9860198497772217 l0.8752864599227905,1.7597024142742157 2.942754626274109,2.835069000720978 l2.21226304769516,1.3848820328712463 3.442693054676056,1.5964210033416748 l5.839197635650635,1.276530772447586 3.6830830574035645,0.0006954189302632585 l3.897722065448761,-0.8709949254989624 3.092118203639984,-1.4579644799232483 l1.0588438808918,-0.8520376682281494 1.4589540660381317,-1.6940084099769592 l1.2373854219913483,-2.390702962875366 0.3542681410908699,-1.6526688635349274 l0.0005220724051469006,-5.389974117279053 -1.4111234247684479,-2.9759863018989563 l-2.0578227937221527,-2.435092478990555 -3.1858721375465393,-2.359771281480789 l-2.0858532190322876,-1.0027514398097992 -5.424619913101196,-1.8457290530204773 l-3.7341004610061646,0.0010198312520515174 -0.6435450911521912,0.13105991296470165 m-3.1211888790130615,5.56157112121582 l-1.7452618479728699,-0.05279351957142353 -1.2492994219064713,0.3640611469745636 l-1.0355906933546066,1.3018733263015747 -0.4394921660423279,1.0007872432470322 l-0.10070845484733582,1.4139363169670105 0.3037678450345993,0.7762308418750763 l0.6893391162157059,0.6330845504999161 2.105199843645096,0.8337412774562836 l1.7165940999984741,0.00035850061976816505 2.582041323184967,-2.8689488768577576 l0.00022993117454461753,-0.3749832510948181 -0.7494444400072098,-1.149422600865364 l-1.6785316169261932,-1.2900270521640778 -2.109341025352478,-0.650375708937645 m14.297267198562622,0.9258133172988892 l-1.7619337141513824,0.0015324741252698004 -0.6804211437702179,0.24221919476985931 l-0.9579356014728546,0.8123420923948288 -1.066954880952835,2.7221766114234924 l0.1277355756610632,1.4517967402935028 0.6803338974714279,0.6876407563686371 l0.9889129549264908,0.4941258952021599 3.998032808303833,0.4447634145617485 l0.5624488368630409,-0.24292800575494766 0.7667586207389832,-0.8863599598407745 l0.43541770428419113,-1.431051790714264 0.00013582165593106765,-2.141135036945343 l-0.24526657536625862,-0.63618004322052 -2.3826777935028076,-1.8969085812568665 l-0.6693444401025772,-0.23567548021674156 -1.5385814011096954,0.0006163228681543842 m-7.192562222480774,8.489978313446045 l0.23956988006830215,1.0482347756624222 0.6106855347752571,0.5190439149737358 l0.6572745740413666,0.20363586023449898 1.5169574320316315,0.28128400444984436 l-0.026608866173774004,-0.5911172181367874 -1.4835360646247864,-0.902496948838234 l-2.023174613714218,-0.5868112295866013 m-7.188328504562378,-4.115492105484009 l-0.015922426246106625,-0.752791240811348 -0.4731553792953491,-1.4196379482746124 l0.00038147616578498855,-1.1294426023960114 0.7022890448570251,-0.46160604804754257 l0.6593513488769531,-0.3378116711974144 0.7635203003883362,-0.07529724854975939 l2.4403762817382812,2.0430977642536163 0.4365010932087898,1.0350941866636276 l0.00024205246518249623,1.0374809056520462 -1.2071308493614197,0.741795226931572 l-2.4247509241104126,0.4150519520044327 -0.5792153999209404,-0.12718620710074902 l0.0003756716978386976,-0.5368479341268539 m13.211956024169922,0.5897510424256325 l0.4212087020277977,-0.16504425555467606 3.473893105983734,-0.8647375553846359 l1.5275722742080688,0.8153878152370453 0.0507214292883873,1.2255148589611053 l-0.7363554835319519,0.4161733016371727 -2.119540721178055,0.0023521117691416293 l-1.1325807124376297,-0.46550460159778595 -0.8927705883979797,-0.7274893671274185 l-0.4201826825737953,-8.606712071923539e-05 -0.5965105071663857,-0.32097451388835907 m-11.801550388336182,11.115480661392212 l-0.6670363992452621,0.5413000658154488 -1.5132954716682434,1.6939379274845123 l-0.6694633513689041,1.269649863243103 -1.4966650307178497,2.4455443024635315 l-0.3888028487563133,0.7554010301828384 -1.1098699271678925,2.0593616366386414 l-1.1167985200881958,4.35883641242981 -0.8160440623760223,2.836417555809021 l0.00019878738385159522,4.053987562656403 -0.0014905656280461699,3.7581783533096313 l1.0025912523269653,3.9562180638313293 2.2815395891666412,4.274193644523621 l1.393350511789322,1.7627856135368347 2.1256311237812042,1.840602159500122 l3.9270493388175964,2.1464429795742035 8.86194109916687,2.4031156301498413 l6.657137870788574,-0.32280903309583664 1.3321883976459503,-0.24000361561775208 l1.3514190912246704,-0.6624843180179596 1.6590295732021332,-1.6211219131946564 l1.1517507582902908,-2.4510949850082397 0.7528170943260193,-3.5840222239494324 l0.0003333367203595117,-6.1414384841918945 -0.4293256998062134,-5.39060115814209 l-0.8808251470327377,-3.5265374183654785 -2.928609848022461,-8.169876337051392 l-1.8416868150234222,-3.8635537028312683 -1.6052128374576569,-3.1117093563079834 l-1.1605038493871689,-1.2464027851819992 m-17.542179822921753,2.8732937574386597 l-1.225002333521843,1.441720873117447 -1.7870783805847168,2.1158620715141296 l-2.5363415479660034,3.9369383454322815 -2.0237641036510468,2.351037561893463 l-0.8518256992101669,1.5556997060775757 -1.2081179022789001,1.7948904633522034 l-2.7443301677703857,6.854840517044067 -0.3317587077617645,3.111158013343811 l0.0003408176053198986,3.5740557312965393 1.4957353472709656,1.3281823694705963 l3.5261207818984985,1.3989919424057007 1.927051991224289,-0.0016669333854224533 l2.540718913078308,-0.726545974612236 0.7144907116889954,-0.3875729814171791 l0.4599985107779503,-0.7008608430624008 0.336872935295105,-0.7531996071338654 " fill="none" stroke="black" stroke-width="1" /></svg>