<?xml version="1.0" encoding="utf-8" ?>
<svg baseProfile="full" height="139.16668963327538" version="1.1" width="248.73789517687442" xmlns="http://www.w3.org/2000/svg" xmlns:ev="http://www.w3.org/2001/xml-events" xmlns:xlink="http://www.w3.org/1999/xlink"><defs /><rect fill="white" height="139.16668963327538" width="248.73789517687442" x="0" y="0" /><path d="M106.28975007922293,61.84047691844171 m0.0,0.0 m117.44814509765149,52.32621271483367 l-27.575998306274414,-33.93817663192749 0.24497061967849731,0.5760875716805458 l3.8029247522354126,-3.4225496649742126 7.579084038734436,-2.244010716676712 l4.024784564971924,0.0007615148206241429 0.2835495211184025,0.46485207974910736 l0.3302931785583496,0.0007937170448713005 -0.3804241120815277,-0.20672999322414398 l0.3122332692146301,-2.23273828625679 -0.4985835403203964,-3.3677172660827637 l-2.7416396141052246,-3.5746505856513977 -6.248043775558472,-3.6958712339401245 l-2.881191670894623,-0.5477148666977882 -5.135549902915955,0.0010252383071929216 l-1.0427723079919815,0.6703541427850723 -0.5341700464487076,-1.2685272097587585 l-1.3280785083770752,-1.4301283657550812 -1.3761094212532043,-0.6766294687986374 l-3.2930907607078552,0.27461009100079536 -2.106757313013077,1.5490317344665527 l0.4620300233364105,-1.805359572172165 -0.9486281871795654,-1.4882266521453857 l-3.4769943356513977,-2.3146863281726837 -3.292514979839325,0.282274279743433 l-2.5920861959457397,0.7357539981603622 -0.6532877683639526,-1.9443528354167938 l-2.335747480392456,-2.8115314245224 -3.4191307425498962,-1.9338826835155487 l-3.4769999980926514,-0.6312787532806396 -3.274981379508972,0.0008522508869646117 l-2.871634066104889,1.5220795571804047 -1.7045029997825623,-2.662785053253174 l-3.434109091758728,-2.0036184787750244 -2.6880863308906555,0.0003995942461187951 l-2.4351371824741364,2.0715147256851196 -1.7703904211521149,-1.634485274553299 l-4.1500124335289,-1.6102850437164307 -3.120080530643463,0.0008838802750688046 l-2.796143591403961,1.2561589479446411 -1.30329430103302,-1.7914600670337677 l-2.9728564620018005,-1.7651869356632233 -1.847986876964569,0.27490299195051193 l-1.3067464530467987,1.1293359100818634 -0.9407490491867065,1.896529346704483 l0.6616237014532089,-0.7634108513593674 0.7595627754926682,-3.2562461495399475 l-0.8938214927911758,-1.2214742600917816 -3.4913277626037598,-1.3526438176631927 l-4.2324575781822205,0.5707791075110435 -0.0009464642062084749,-0.1769031025469303 l-0.5009546130895615,0.6729169189929962 0.0003050920167879667,-0.4495076835155487 l-0.6098837777972221,-1.0436781495809555 -2.219332903623581,-1.7199112474918365 l-3.800044059753418,-0.8181008696556091 -4.134019315242767,0.7688502222299576 l-0.0008234422421082854,0.5380137637257576 1.4607343077659607,0.6801310926675797 l-0.5754989013075829,0.00022961748982197605 -1.5134741365909576,0.9918332099914551 l0.4722202569246292,0.00028552223739097826 1.6114552319049835,-1.203935444355011 l0.670950710773468,-1.3502991199493408 -0.0006792219210183248,-1.2486229836940765 l-1.1112728714942932,-0.9809338301420212 -1.996227502822876,-0.8665142208337784 l-1.8322719633579254,-0.7997968047857285 -0.9242106229066849,0.000566425733268261 l-0.00040454888221574947,0.8404228836297989 1.2869605422019958,0.5358069017529488 m1.782105416059494,-2.4328188598155975 l0.3587409481406212,-0.6251721084117889 -0.09932143613696098,-0.4615101218223572 l-0.00026147099561057985,-0.800052285194397 -0.09354669600725174,0.0001852141213021241 l-0.0003757769081857987,0.12534578330814838 -0.28553104028105736,-0.39089370518922806 l-0.2790462039411068,-1.3474133610725403 -0.1864246465265751,0.0001957528365892358 m0.17676999792456627,-1.96370467543602 l-0.675002858042717,0.0006125536310719326 0.007720624562352896,-1.3249391317367554 l-0.1742633804678917,0.0008787684782873839 -0.00048654808779247105,0.35056088119745255 l1.2923382222652435,0.2543843351304531 m-12.793635129928589,3.1358808279037476 l-1.1050810664892197,-0.5033872649073601 0.1386505551636219,-0.5851761624217033 l0.9886205941438675,0.2594601549208164 m5.4727864265441895,1.8159262835979462 l2.410585880279541,0.0003468626891844906 0.7902180403470993,-0.8769741654396057 l2.4965468049049377,-0.8222607523202896 2.5781995058059692,0.38168180733919144 l1.114620864391327,0.6631120294332504 0.8111372590065002,1.669340580701828 m-14.296892881393433,1.3506895303726196 l-1.910252720117569,0.264268908649683 -1.1457514762878418,2.0664621889591217 l-0.46987101435661316,5.918572545051575 0.22303149104118347,2.985748052597046 l0.567844957113266,0.6359507888555527 2.990921139717102,0.47351397573947906 l3.4950074553489685,3.597988097681082e-05 2.117137461900711,-1.4482399821281433 l1.6385899484157562,-2.2512590885162354 2.4701417982578278,-1.4186160266399384 m-14.527980089187622,-5.7212430238723755 l-1.080336943268776,1.009305715560913 -0.0002464226236043032,1.3652430474758148 l1.7061218619346619,-1.0948383063077927 -0.00028379725335980766,-0.8939004689455032 l-0.9082154184579849,-1.2616424262523651 -0.7319561392068863,0.00021071067749289796 l-0.00037344914744608104,0.29904281720519066 0.2848460339009762,-0.537804402410984 m2.8240153193473816,1.3182678818702698 l0.349666103720665,-0.4944802075624466 0.2739281393587589,0.00032236370316240937 l0.24694129824638367,-0.30497360974550247 -6.616343853238504e-05,-0.5118570104241371 l-0.6032431498169899,-0.6103062257170677 -1.0748878121376038,1.8547207218944095e-05 l-0.5944579839706421,0.42662423104047775 0.3587416559457779,-0.6648362427949905 l-0.44095002114772797,-0.5219544842839241 -0.33156130462884903,-0.2738524228334427 l-0.2301170490682125,0.12912212871015072 0.08541896007955074,-1.1534053087234497 l-0.5993537232279778,0.2480270154774189 -0.0005029838575865142,0.869254544377327 l0.2701774798333645,-0.5005887523293495 m-10.999165773391724,3.1953445076942444 l-0.6477773189544678,-0.1546163111925125 -0.8597388863563538,-1.3069845736026764 l8.474306696371059e-06,0.05110871512442827 -0.8918570727109909,0.7916054129600525 l0.03451277036219835,-0.5555756762623787 0.5130791664123535,0.25708893314003944 l0.2635742537677288,-0.2235732041299343 -0.33141400665044785,-0.8186275511980057 l-0.8203693479299545,4.679612857216853e-06 -0.00025460820324951783,0.5060882121324539 l0.3192814067006111,-0.4059365764260292 -0.5755886435508728,-0.11599664576351643 l-0.4022185876965523,-0.6433960795402527 -0.0003084685522480868,0.5003439262509346 l-0.44832639396190643,0.07433793041855097 -0.2893342450261116,-0.4261016473174095 m2.4820958077907562,1.8072660267353058 l4.9514010243001394e-05,0.016658315435051918 -0.8293332904577255,1.0667644441127777 l0.33428389579057693,-0.13619090430438519 0.24449631571769714,-0.28988638892769814 l-0.4029064252972603,-0.7504673302173615 -0.9386427700519562,-0.2363646775484085 m12.58824110031128,25.93219757080078 l0.0006442659650929272,2.098858207464218 -1.831965297460556,2.2090744972229004 l-0.4076101630926132,3.3412232995033264 3.246018886566162,1.9277694821357727 l2.4358898401260376,-0.00040734103095019236 1.5603528916835785,-1.4020739495754242 l1.434670239686966,-3.9973184466362 0.2559611201286316,-1.744156926870346 l1.4286738634109497,-2.8656744956970215 m-2.9112714529037476,5.831788778305054 l0.7460252195596695,0.9015528112649918 2.925860583782196,0.8921444416046143 l-0.02517275046557188,-2.2562600672245026 -1.5316884219646454,-3.1331461668014526 m13.721528053283691,0.4067719727754593 l-0.21625513210892677,1.95786252617836 2.0708926022052765,-0.0006515253335237503 l0.8594813942909241,-0.7263487577438354 -0.00028195145205245353,-0.8165515959262848 l-0.10248235426843166,-6.941534138604766e-05 0.7382619380950928,-0.00018070566511596553 l0.47367870807647705,-0.6796349585056305 -0.5976053699851036,-0.8157645165920258 l-0.8622662723064423,-0.4105750098824501 m-3.994562327861786,-0.3993690013885498 l0.6857969611883163,-0.15601666644215584 -5.385313670558389e-05,0.8140590041875839 l1.2355973571538925,-0.18406489863991737 -0.00020561083147185855,-0.2618863619863987 l-1.3434544205665588,-0.2782422676682472 m-17.67398715019226,-11.621967554092407 l-3.167053461074829,-3.0582529306411743 -1.2898354232311249,-0.8362894505262375 l-4.289097189903259,-0.34537192434072495 -1.4723528921604156,0.8759306371212006 l-0.000452826643595472,0.6690901517868042 0.5930352956056595,0.46544887125492096 l0.14735694974660873,-0.8860118687152863 -1.676124781370163,-1.5504476428031921 l-2.84333735704422,-1.341577172279358 -3.2005858421325684,-0.5880009010434151 l-0.9062550216913223,0.5050453171133995 -0.0006635546742472798,0.8570320159196854 l0.907871276140213,-0.6826840341091156 0.017381907673552632,-3.6996781826019287 l-0.7312320917844772,-1.148495078086853 -1.8747387826442719,-1.4704832434654236 l-3.2251709699630737,-5.158237399882637e-05 -1.983807533979416,1.1481178551912308 l-0.3872571513056755,0.9783016890287399 -1.36895552277565,-1.856161206960678 l-2.1848995983600616,-1.1503104865550995 -3.2739967107772827,-0.5864275246858597 l-1.5430711209774017,0.45113399624824524 -1.091923862695694,1.5835091471672058 l-0.00016772779417806305,0.6799758970737457 -0.1516143325716257,-1.5036097168922424 l-1.2112581729888916,-1.5386280417442322 -2.408321350812912,0.0002618186772451736 l-2.2549623250961304,1.566680520772934 -0.17536303028464317,0.9282555431127548 l-0.935366079211235,-1.6650782525539398 -1.6356542706489563,-1.100599616765976 l-2.070416957139969,0.00039273225411307067 -1.8979226052761078,1.2293510138988495 l-0.10060438886284828,-0.8067703992128372 -1.288130134344101,-1.7274601757526398 l-3.276815116405487,-1.3314157724380493 -2.9290997982025146,0.011376956244930625 l-2.2053413093090057,0.9803363680839539 -0.4774688184261322,0.7235021144151688 l-0.06671297829598188,-1.554097980260849 -2.3532600700855255,-1.461511254310608 l-1.3023664057254791,-0.04461926408112049 -1.821696162223816,0.808519721031189 l-1.721900850534439,2.276981920003891 0.6782488524913788,-0.18354175612330437 l1.1117134988307953,-0.8387457579374313 0.694071352481842,0.0002924725413322449 l-0.16260946169495583,0.5985377728939056 -0.8440820872783661,2.2872456908226013 l-0.12144043110311031,2.343369573354721 1.2104512006044388,0.00016373538528569043 l1.5142053365707397,-1.299053579568863 1.802527755498886,-2.4819616973400116 l0.6023385375738144,-3.328147530555725 -0.3770986571907997,-1.0632137954235077 l-2.655983567237854,-1.3002897799015045 -5.743269324302673,1.2720206379890442 l-1.8329018354415894,1.4174051582813263 -0.00013217681953392457,1.5856815874576569 l1.0742726922035217,1.1641552299261093 2.821837365627289,0.0002258122003695462 " fill="none" stroke="black" stroke-width="1" /></svg>