<?xml version="1.0" encoding="utf-8" ?>
<svg baseProfile="full" height="95.47982871643342" version="1.1" width="106.28529917468768" xmlns="http://www.w3.org/2000/svg" xmlns:ev="http://www.w3.org/2001/xml-events" xmlns:xlink="http://www.w3.org/1999/xlink"><defs /><rect fill="white" height="95.47982871643342" width="106.28529917468768" x="0" y="0" /><path d="M25,25 m0.0,0.0 m54.48168825378161,4.615423412815858 l1.803610920906067,-0.008475263603031635 -9.035667777061462,1.867956817150116 l-0.9734112024307251,-0.35266008228063583 -1.2903699278831482,-1.6190241277217865 l-6.004858613014221,2.4097691476345062 -0.41789460927248,0.66651351749897 l-3.0920249223709106,1.9316591322422028 -0.6321780383586884,0.8405905216932297 l-0.829693078994751,2.322937250137329 -0.08459320291876793,0.0007345677295234054 l-2.5174331665039062,2.8642600774765015 -0.1691691391170025,1.585862934589386 l-1.1890868842601776,2.04621821641922 0.2578814700245857,1.6126888990402222 l-0.2850576676428318,0.2669365145266056 -0.46243220567703247,2.0732247829437256 l1.532338559627533,0.9645258635282516 -1.1703843623399734,1.4650313556194305 l-0.03519019577652216,0.9612119197845459 0.1875476911664009,0.0003305653444840573 l-0.4082874208688736,0.5592062324285507 1.309310793876648,0.25635406374931335 l0.00044547912693815306,1.6836829483509064 0.9578308463096619,0.00024495568140991963 l0.1548922434449196,0.6630289554595947 0.8098085224628448,6.046301223250339e-05 l-0.00045640223106602207,1.2389720231294632 1.631956696510315,0.00021515814296435565 l-0.1491114217787981,0.8614113181829453 2.3629863560199738,0.0003024012767127715 l-0.0002727423270698637,1.2836724519729614 2.0616428554058075,0.258928332477808 l-0.00029366477974690497,-0.12999839149415493 0.8902116864919662,0.00016749545466154814 l1.6863656044006348,0.00019431008695391938 2.1526849269866943,-0.27419932186603546 l-0.0004968358553014696,-0.8329775929450989 0.28710978105664253,-0.22282849997282028 l0.4454398527741432,-0.37313230335712433 0.8778047561645508,0.0002361912265769206 l0.26841530576348305,-1.5634480118751526 0.9101033955812454,0.00031128500268096104 l-0.0005077382957097143,-0.7813147455453873 -0.06911650765687227,-0.569818839430809 l-0.08917739614844322,-0.3787194564938545 0.5775802582502365,2.0574227619363228e-05 l-0.2766140550374985,-1.391749233007431 0.888139009475708,-0.3907497972249985 l-0.0003863747770083137,-1.4403913915157318 -8.130997230182402e-05,-1.7085695266723633 l-0.00019009687093785033,-1.4542260766029358 0.3312411531805992,-0.8475250750780106 l-0.2860240824520588,-1.9307941198349 -0.23449672386050224,0.00010139147889276501 l-0.00023556653104606085,-0.6542897969484329 -0.2552928775548935,0.2713537774980068 l0.18827680498361588,-0.8883269131183624 -0.019261989509686828,-0.6754807382822037 l0.21596688777208328,-0.3728035092353821 -0.1864299550652504,-1.1184369772672653 l-0.4674040898680687,-0.7846438139677048 -0.3773733973503113,-0.0002314618177479133 l-0.267538707703352,-0.9381873905658722 -1.0797901451587677,0.00019318928025313653 l-0.21651001647114754,-1.0236722975969315 -0.9198672324419022,-0.514797605574131 l-1.726662814617157,0.00034205339034087956 9.164859875454567e-05,0.10191201232373714 l-2.3945221304893494,0.0006828636105637997 -1.725456565618515,0.4521847143769264 l-1.0123243182897568,1.4420755207538605 -0.7802281528711319,0.4927707463502884 l-0.2615804597735405,1.6869153082370758 -0.07854447700083256,0.02585754729807377 l0.00019162229364155792,0.02317768521606922 -6.482398021034896e-05,0.6347425282001495 l-0.594157911837101,0.0005804240936413407 -0.8250697702169418,0.484912246465683 l0.0004654754957300611,1.0457150638103485 -1.8901969492435455,0.0006029881478752941 l-1.2377791851758957,1.1085009574890137 -0.0006897380808368325,1.2919001281261444 l-1.1551424115896225,0.000603180487814825 -1.3047513365745544,1.0227779299020767 l-1.468273401260376,0.00026952411644742824 0.00023866152332630008,1.7915424704551697 l1.15400992333889,0.000577631508349441 -0.0004145767888985574,1.662880778312683 l1.2967577576637268,0.0002832800419128034 -0.00024271141228382476,0.19331207498908043 l1.161259338259697,0.0004970205191057175 0.26102500036358833,0.6854213774204254 l0.38491319864988327,0.000698310395819135 -1.629666030567023e-05,2.428242564201355 l3.4553927183151245,0.00040843107854016125 0.0006520213355543092,2.1930715441703796 l2.3772478103637695,0.00047643719881307334 0.0005493189382832497,0.9220869094133377 l1.536606103181839,0.0003075377389905043 0.48385418951511383,-0.6286958605051041 l0.6492862105369568,0.0004132986214244738 1.3343694806098938,8.925583642849233e-05 l-0.0003409261626075022,-0.9542468190193176 1.1373744159936905,0.0004894919402431697 l-0.00019757108020712622,-0.8103789389133453 1.2498614192008972,0.00039583173929713666 l-1.7055511989383376e-05,-0.5993638560175896 -0.2729758620262146,0.00035040877264691517 l0.039485273882746696,-8.431707101408392e-05 0.715043768286705,-0.9357349574565887 l0.5350336804986,0.00031365543691208586 -0.00029133496354916133,1.1206423491239548 l-0.8505053073167801,0.0004956942939315923 0.0001298160532314796,1.5767796337604523 l-0.0239194231107831,0.0002879906605812721 0.37191491574048996,0.06711465306580067 l6.801960807933938e-05,-0.1846095360815525 -1.5113691985607147,0.0005149512435309589 l0.0002236315413028933,-0.06873286329209805 -0.3724218159914017,0.5848817154765129 l1.1762139946222305,0.26640335097908974 1.1067984998226166,0.0002877617043850478 l0.00029335333238122985,-0.2847939357161522 0.19919924437999725,0.00030216846425901167 l-0.00019837514628306963,0.26641126722097397 0.5792972818017006,0.0004153124973527156 l-0.3048034757375717,0.000329070353473071 -0.5701087787747383,0.00038945669075474143 l1.2502242725531687e-05,0.6523560732603073 -0.498398058116436,0.0004918269041809253 l6.13858901488129e-05,0.38706038147211075 -0.8429904282093048,0.0004818419984076172 l1.0224084689980373e-05,0.9248417615890503 0.6718860566616058,0.0003416364052100107 l0.09770311415195465,-0.5545040592551231 -1.9639144837856293,0.00036453973734751344 l0.3394259884953499,0.0003876570553984493 -0.00031498813768848777,0.41211266070604324 l-0.6452206522226334,0.00046297358494484797 7.207714588730596e-05,0.5144315958023071 l0.16868935897946358,0.0004099972647964023 -0.28314488008618355,0.0004649596303352155 l0.00020202840460115112,0.6077641993761063 0.7634630799293518,0.2670743316411972 l-0.10777425020933151,0.00035972410842077807 -0.12568197213113308,-0.10897134430706501 l5.468816652864916e-05,0.5037686601281166 0.2550634741783142,0.0003740714237210341 l-0.6368017941713333,0.24945000186562538 -0.10228204540908337,0.00044737149437423795 l-6.873292477393989e-05,0.5061465129256248 0.24938184767961502,-0.0632900046184659 l-1.5727856755256653,0.00024552973627578467 0.00037583813536912203,1.0721483826637268 l-0.30123645439743996,0.00037471440009539947 -7.288785582204582e-05,0.027299444191157818 l-0.41346434503793716,0.0003511760223773308 1.0290513187646866,0.3516365587711334 l-0.8764743059873581,0.00019437457012827508 1.0981111973524094,0.48477809876203537 l-1.0663414746522903,0.00023934695491334423 0.346379317343235,-0.1668388955295086 l0.42556144297122955,-0.16766022890806198 -5.2602781579480506e-05,0.5904806032776833 l0.4088488966226578,-0.49093522131443024 -0.8556436747312546,0.48482291400432587 l0.6502191722393036,0.07462470326572657 -0.9442286938428879,0.7187871634960175 l0.000433567474829033,0.3665635362267494 -0.4432722181081772,0.00034134602174162865 l0.4784828796982765,0.15889931470155716 -0.0003245978950872086,-1.0334011912345886 l-1.6457229852676392,0.26807084679603577 1.5145079791545868,-0.18371080979704857 l-1.3934537768363953,0.8165334165096283 0.2632538601756096,0.4444245994091034 l0.3403816744685173,0.2514481358230114 -0.37032652646303177,0.00021026191461714916 l0.00030596525903092697,0.6622179597616196 -0.12938343919813633,0.0005452134791994467 l0.0001063092531694565,0.25342250242829323 -0.1642094925045967,0.00011721321243385319 l0.7713383436203003,0.5323905125260353 -0.3293892368674278,0.00037831789086339995 l0.00016226858861045912,0.30903032049536705 -0.213569737970829,0.0002127209518221207 l-0.35209473222494125,0.15299036167562008 0.9663879871368408,-0.11272932402789593 l-0.4785272851586342,0.49842629581689835 -0.4618563875555992,0.254012756049633 l7.553835530416109e-05,0.4643634706735611 -0.2813381142914295,0.0004984999759471975 l1.1871735751628876,0.008186586201190948 -0.0003419850327190943,0.7833347469568253 l-0.1069621741771698,-0.9151390194892883 -1.3474376499652863,-2.8899096378154354e-05 l0.00044811564293922856,0.934821367263794 -0.00017091455447371118,-0.016082206275314093 l0.6229550763964653,0.35826660692691803 0.00013996937013871502,-1.4826498925685883 l-1.7398500442504883,0.00021370458853198215 -0.0001946677002706565,0.9727482497692108 l1.314477026462555,0.0004563713082461618 -0.7947656512260437,-0.509491041302681 l-0.6938130408525467,0.0005321349817677401 0.1799124851822853,0.00012044949471601285 l0.25709038600325584,0.14068015851080418 8.042175977607258e-05,-0.2559901401400566 l8.547680749870779e-06,0.10263720527291298 -0.18364885821938515,0.00019236224034102634 l0.00013075024071440566,0.34736912697553635 -0.08696487173438072,0.30431050807237625 l0.04788360558450222,0.03241440514102578 -0.003127270028926432,0.22052794694900513 l0.2759554423391819,0.00033047566830646247 0.00016914194929995574,0.6419996917247772 l-0.2003270573914051,0.000523875278304331 0.44119495898485184,-0.27513034641742706 l-0.7731166481971741,0.0002453633351251483 0.00031624269468011335,0.12471696361899376 l0.24550456553697586,0.640827938914299 0.40490318089723587,-0.2700892649590969 l-0.4030081629753113,-0.12818889692425728 -0.42509205639362335,-0.026596446987241507 l-0.3703562542796135,0.00022718346372130327 1.8874914076150162e-05,0.26108382269740105 l0.5012880265712738,0.0026925618294626474 -0.23642241954803467,0.5668989196419716 l0.0004335003541200422,-0.5734226107597351 -0.00017241745808860287,0.2794819325208664 l0.8349314332008362,0.06422988139092922 -0.6233702972531319,-0.39718687534332275 l-0.0055706489365547895,-0.5756714567542076 -0.39004895836114883,9.964491027858458e-06 m0.7677295058965683,-1.8509557843208313 l-0.286084171384573,0.6956019252538681 0.11924768798053265,-0.3083617053925991 l-0.00021192665371927433,1.5313903987407684 0.2375398948788643,0.00016767153283581138 l-0.7215672731399536,0.24575157091021538 -0.2849045768380165,0.00039921229472383857 l3.7695426726713777e-05,0.7236764580011368 0.28237031772732735,0.2390565723180771 l-8.710949259693734e-05,-0.7030550390481949 m2.6862967014312744,-3.2024002075195312 l0.2414846234023571,1.6577409207820892 -1.125224381685257,0.252310149371624 l0.00023410249923472293,0.7812885195016861 m-0.11876534670591354,-3.4506914019584656 l-0.00015969775631674565,2.526456117630005 " fill="none" stroke="black" stroke-width="1" /></svg>