<?xml version="1.0" encoding="utf-8" ?>
<svg baseProfile="full" height="106.74916692287525" version="1.1" width="106.30149549222551" xmlns="http://www.w3.org/2000/svg" xmlns:ev="http://www.w3.org/2001/xml-events" xmlns:xlink="http://www.w3.org/1999/xlink"><defs /><rect fill="white" height="106.74916692287525" width="106.30149549222551" x="0" y="0" /><path d="M25,28.67702836275498 m0.0,0.0 m49.40419712697803,15.483803694363587 l-0.7093270868062973,-0.302444901317358 -4.307186305522919,0.013653230853378773 l-0.8057505637407303,0.20268745720386505 -1.2219434976577759,2.1281206607818604 l-0.12458864599466324,1.5654245018959045 -5.792139745608438e-05,2.876679301261902 l1.1996246129274368,3.753627836704254 1.4213895797729492,1.8670609593391418 l1.7740705609321594,1.2250162661075592 1.4789129793643951,0.5586940050125122 l3.059311807155609,-4.020966571260942e-05 2.15771347284317,-0.6611873209476471 l0.6231971457600594,-0.48565324395895004 1.3668285310268402,-1.7103169858455658 l0.9851036965847015,-2.483700066804886 -0.012045919429510832,-1.5675581991672516 l-0.5969544872641563,-2.6289168000221252 -0.86776964366436,-1.8473881483078003 l-2.156311571598053,-1.9452427327632904 -2.395373284816742,-1.2950985133647919 l-2.2301259636878967,-0.4449741542339325 -1.7015419900417328,-8.149218047037721e-05 m-3.8327431678771973,2.561233937740326 l-1.0049861669540405,-1.6679909825325012 -3.1460249423980713,-4.311860799789429 l-1.8485535681247711,-2.736576497554779 -1.114787608385086,-2.5013116002082825 l-0.5842581763863564,-3.854529559612274 -0.6034527346491814,-1.872260421514511 l-1.1260899156332016,-1.9742333889007568 -1.7838507890701294,-1.049254983663559 l-2.4013587832450867,-0.5723197758197784 -2.238892614841461,-8.943584361986723e-05 l-1.1316581070423126,0.3618227317929268 -0.9897760301828384,0.6611618399620056 l-1.9218327105045319,2.8072771430015564 -0.3332569822669029,1.5140827000141144 l0.2046196162700653,1.2737837433815002 1.1584097892045975,1.5455259382724762 l0.7918927818536758,0.6095642223954201 0.3720742464065552,-1.21713833323156e-05 l0.45136209577322006,-0.44668659567832947 0.9312228858470917,-1.6737742722034454 l0.9658108651638031,-1.0832612961530685 1.690422147512436,-0.8981684595346451 l1.982206106185913,-0.40498580783605576 1.871800273656845,-0.00017517137166578323 l1.2072290480136871,0.3297414630651474 1.591435968875885,1.7212975025177002 l0.9427117556333542,2.2033753991127014 1.0289652645587921,4.453364312648773 l0.8079012483358383,1.6937409341335297 0.00023294172933674417,3.6364296078681946 l-0.3784196078777313,2.662366032600403 0.0001551925015519373,2.2887009382247925 l-0.2808029018342495,1.339641511440277 -0.06750629283487797,1.6813752055168152 l0.4132062941789627,1.4389653503894806 0.8458302915096283,1.0195338726043701 l2.144295871257782,1.2260182946920395 2.3671910166740417,0.737520381808281 l3.247514069080353,0.3844255208969116 1.2186654657125473,-0.3689051792025566 l1.8520073592662811,-0.3764219209551811 m-3.7694349884986877,1.422712653875351 l0.00034961187338922173,14.54161286354065 -0.8143165707588196,7.543313503265381 l-0.38688335567712784,1.682506948709488 -0.5779360979795456,1.2216971814632416 l-0.19473426043987274,-0.06372797768563032 m8.732602000236511,-25.532500743865967 l7.640219337190501e-05,2.8853586316108704 0.0001627634082979057,6.05848491191864 l-0.24280913174152374,3.0188757181167603 0.08604403585195541,8.78540575504303 l-0.5309393256902695,1.67701855301857 -0.6400883942842484,1.0514285415410995 l-1.7275671660900116,1.1603174358606339 -1.1024194955825806,0.33605922013521194 l-0.9373999387025833,1.0656940503395163e-05 " fill="none" stroke="black" stroke-width="1" /></svg>