<?xml version="1.0" encoding="utf-8" ?>
<svg baseProfile="full" height="98.29514045918813" version="1.1" width="128.62846843838156" xmlns="http://www.w3.org/2000/svg" xmlns:ev="http://www.w3.org/2001/xml-events" xmlns:xlink="http://www.w3.org/1999/xlink"><defs /><rect fill="white" height="98.29514045918813" width="128.62846843838156" x="0" y="0" /><path d="M25,27.36867616278346 m0.0,0.0 m48.06857862301399,0.8524297704059336 l0.828382819890976,-3.221105933189392 8.817121386528015,2.111917734146118 l1.035725623369217,1.26437246799469 0.6003541126847267,-0.08017397485673428 l4.767646491527557,0.5672450736165047 3.301180601119995,2.4734754860401154 l-0.5198972299695015,0.7123730331659317 2.434806376695633,-0.0052463647443801165 l3.301805853843689,1.2920570373535156 0.6370168924331665,1.6804681718349457 l1.9578345119953156,2.8856277465820312 0.0004401394835440442,0.9502606093883514 l-0.6395778059959412,0.6628520041704178 1.4751644432544708,1.2077125906944275 l8.7740290837246e-05,1.569969654083252 2.56160169839859,3.8721752166748047 l0.00019615981727838516,2.2757847607135773 -1.4513668417930603,2.432752400636673 l1.0557009279727936,2.7643272280693054 0.00027384374334360473,1.6591984033584595 l-1.8753530085086823,1.5272219479084015 0.5433504283428192,3.2077181339263916 l-1.2522043287754059,1.4981938898563385 -2.9117700457572937,1.6005074977874756 l-3.528951406478882,3.0056074261665344 -4.464188516139984,2.3494766652584076 l-3.327607810497284,0.28787562623620033 -1.5266509354114532,-0.8402832597494125 l-0.8132018148899078,0.00020264373233658262 -5.210932493209839,1.8843425810337067 l-3.8792631030082703,0.00036086283216718584 -1.023465245962143,-0.5405958741903305 l-2.009955644607544,0.0005788754424429499 -4.236670434474945,-1.1266455054283142 l-1.5169256925582886,-1.1827294528484344 -2.846735715866089,1.226077750325203 l-5.5827295780181885,-1.878504455089569 -1.4228437840938568,-1.514589935541153 l-4.839650988578796,-0.5635122954845428 -1.337648183107376,-1.711999773979187 l-0.4473596438765526,-1.9526638090610504 0.36358408629894257,-1.2698397040367126 l-2.1212999522686005,-2.2198668122291565 -0.5983510240912437,-1.520814597606659 l1.1170708388090134,-1.9602365791797638 1.0858958214521408,-0.6832278519868851 l-1.8705663084983826,-3.7983575463294983 5.138995220477227e-05,-1.8450969457626343 l2.0688262581825256,-2.5629454851150513 -0.28422122821211815,-4.295181334018707 l1.6105076670646667,-1.2383021414279938 2.3420871794223785,-3.259425163269043 l4.003932178020477,-0.4048166051506996 2.2508691251277924,-4.079933166503906 l2.677544355392456,-0.49633927643299103 2.737542986869812,-0.00016421206964878365 l1.511993408203125,1.5795797109603882 1.8960344791412354,-1.365485042333603 l1.6109606623649597,0.0002855348247976508 m-20.222163200378418,12.645808458328247 l-1.8824587762355804,-1.8745173513889313 -3.742029070854187,0.00026457397325430065 l-0.8013418316841125,1.205953136086464 -1.360546350479126,0.5814531818032265 l-0.9262837469577789,-0.534462183713913 -2.319338619709015,0.0002812742968671955 l-1.475033313035965,2.398664355278015 -1.005004644393921,-0.3567269444465637 l-2.381974458694458,1.629517376422882 -0.35068415105342865,1.659884750843048 l-0.9032914042472839,0.8573108166456223 0.0005538035111385398,2.658056616783142 l1.2043792009353638,1.7551140487194061 2.431004047393799,-0.3625456243753433 l1.2837155163288116,2.437177747488022 1.4758484065532684,0.00034120639611501247 l1.4814114570617676,-0.8575165271759033 1.3412149250507355,1.0851719975471497 l2.737150490283966,7.121245744201588e-05 1.667409986257553,0.48781026154756546 l2.271535098552704,-1.0551173985004425 1.968056559562683,0.0002004805537580978 l2.7943098545074463,0.6832803040742874 m-15.431365966796875,-13.786009550094604 l-2.415282130241394,-0.0005257538941805251 -1.3692091405391693,0.9463977068662643 l-0.44112369418144226,1.3992685079574585 0.13683758676052094,0.0005298565156408586 l0.5997244641184807,-1.4977015554904938 -0.5838973075151443,-0.12644000351428986 l-0.4509246349334717,1.254800260066986 -0.020496235229074955,0.3002295643091202 l0.43779440224170685,-1.2310827523469925 -0.4430902376770973,-0.25718268007040024 l-0.29849814251065254,1.626436561346054 0.7477710396051407,-1.2289664149284363 l-0.00016974789105006494,0.6414932012557983 -0.04707987420260906,-0.7387668639421463 l0.02486699027940631,0.058023384772241116 -0.0002706447230593767,0.4822288826107979 l0.15830619260668755,-1.029723882675171 -0.6872246414422989,0.27853453531861305 l-0.3787335753440857,1.1505529284477234 0.5593525618314743,-0.8647619932889938 l-0.10581123642623425,1.0817734152078629 0.23320799693465233,-1.1792677640914917 l-0.7522889226675034,0.00038220154237933457 -0.5328678339719772,0.7051949948072433 l0.7255103439092636,-0.5847335234284401 -0.05826826673001051,-0.38112781941890717 l-0.2497692033648491,0.1748856157064438 -0.0001431135206075851,1.272159218788147 l0.38235072046518326,-1.064811497926712 -0.1756436936557293,0.10832870379090309 l0.397581122815609,0.31801633536815643 -8.121421160467435e-05,0.24263454601168633 l-0.011540867853909731,-0.7926905155181885 0.0002677549491636455,0.6565333157777786 l-0.1371301431208849,0.00019662076738313772 m-0.5183232575654984,1.5740880370140076 l0.7047586888074875,-0.18786653876304626 0.0002367543856962584,-0.6003674119710922 l-0.2707134559750557,0.0004142691977904178 0.04603856708854437,-0.48648055642843246 l0.23789534345269203,0.00028728902179864235 m-1.0934293270111084,2.9275092482566833 l-0.2921529859304428,0.3080233559012413 m4.509732723236084,-1.3292095065116882 l-1.574808806180954,0.2848411165177822 m0.7496090978384018,-2.6953837275505066 l-1.302223652601242,0.0001177293870568974 -0.821673721075058,0.6533403694629669 l-0.09094231761991978,1.4138591289520264 1.8069705367088318,0.00047743051254656166 l-0.00027789077648776583,-0.8328092843294144 0.28761686757206917,0.0003587282117223367 l-0.00020384070012369193,0.37941519170999527 m1.1488936841487885,0.5878686532378197 l0.007600174285471439,0.00025002624170156196 0.10149872861802578,-0.2224557101726532 l-0.363379567861557,0.00046235643822001293 0.2670188248157501,-0.48245616257190704 l-0.5677225813269615,0.00032782325433799997 -0.0002249227327411063,0.19580034539103508 l0.42250458151102066,0.8233263343572617 -0.00017838803614722565,-0.6858111172914505 l-0.3498581051826477,-0.2669033408164978 -0.5112545564770699,0.27133241295814514 l-0.5746142193675041,0.6106696650385857 0.8181105554103851,-0.6169737875461578 l-0.8903511613607407,0.00033763099054340273 -0.4975428804755211,0.5367591977119446 l1.7232820391654968,-0.5977429077029228 m-0.5712718144059181,1.6807834804058075 l0.00036810306482948363,-0.20454708486795425 -0.48211827874183655,-0.00022750828065909445 l-0.7272041589021683,0.0004337402424425818 -0.00022709287804900669,-0.11646460741758347 l0.7999543100595474,0.2651941031217575 -0.00041484108805889264,-0.4294617101550102 l-0.6124263256788254,0.00024064571334747598 -0.00016745900211390108,0.4818163439631462 l0.5258476361632347,0.000167136295203818 -0.2110069990158081,-0.8660644292831421 l-0.7687526196241379,0.00021856725652469322 m0.7503986358642578,-0.7827820628881454 l-0.0005048001912655309,-0.05529518239200115 -0.9985693544149399,-0.3596624359488487 l0.04505057819187641,0.0006851498619653285 0.239589624106884,-0.22052178159356117 l-0.2512612007558346,0.0002045608744083438 -0.15800237655639648,-0.1505706924945116 l0.353795662522316,-0.3046203590929508 m-2.6012277603149414,1.704651266336441 l0.048317029140889645,7.86918644735124e-05 -0.00021563246264122427,0.5129947513341904 l0.1679028570652008,-0.2714867889881134 -0.4991393908858299,0.00046345685404958203 l-0.00013256099919090047,0.1472157333046198 2.0116219729970908e-05,-0.06008585449308157 m0.0014224373444449157,-0.10234895162284374 l-0.29254354536533356,-0.14637279324233532 -0.596148669719696,-0.5580996349453926 l0.04088284447789192,0.000376100761059206 0.5112240463495255,0.42084425687789917 l0.21954983472824097,0.00021190857296460308 -0.46154625713825226,4.949204139848007e-06 l-0.0001682037145656068,0.22641697898507118 -4.775613433594117e-05,-0.36631252616643906 m-2.407524436712265,0.6088508665561676 l8.09733410278568e-05,-0.11497381143271923 0.30643628910183907,-0.6053728610277176 m3.3729758858680725,-2.020299583673477 l-0.29881687834858894,-0.2708803117275238 -0.2009950391948223,-1.0511631518602371 l0.549929253757,0.0003172784636262804 -0.09843427687883377,0.788726732134819 l-1.9185895325790625e-05,-0.25487909093499184 -0.00029015684049227275,-0.20506808534264565 l-0.0003055625347769819,0.3871111571788788 -6.474493147834437e-05,-0.5094172805547714 m-3.1837457418441772,4.226321280002594 l1.1501509696245193,0.0003357370223966427 -0.00013014578144066036,-0.28504466637969017 l-0.9678515791893005,0.3295070305466652 -0.24214863777160645,-0.498507022857666 l0.24179505184292793,-0.8635292202234268 -0.06102269049733877,0.0001219102614413714 l-0.00025652576368884183,0.6850839406251907 0.2207084372639656,-0.5817700549960136 l-0.40604986250400543,-0.11727183125913143 -0.0003181066131219268,0.7382959127426147 l0.03652794752269983,0.00017242256944882683 -0.05778278224170208,-0.48527464270591736 l-0.7315502315759659,0.2080230973660946 0.2487017773091793,-0.170670785009861 m2.265617698431015,-5.766721963882446 l-0.17642520368099213,-0.7008768618106842 0.26663053780794144,6.232336090761237e-05 l-0.00042389885493321344,0.3347272053360939 -0.14244143851101398,0.4114380478858948 m4.496929943561554,23.290221691131592 l-1.1253386735916138,5.663793683052063 0.2185778133571148,0.24442460387945175 l1.4612142741680145,-0.14369885437190533 1.8640001118183136,-1.8977680802345276 l0.20231446251273155,-1.7127369344234467 m-1.8809106945991516,4.783574342727661 l-0.45812632888555527,2.4735738337039948 3.3489811420440674,-1.1503605544567108 l-0.00033862870623124763,-3.0371007323265076 -1.1881359666585922,-0.8774019032716751 l0.23738136515021324,-0.7014895975589752 m0.7325872778892517,4.6499258279800415 l0.0004758794602821581,1.0902003198862076 1.3101527094841003,0.2552202343940735 l-0.0003194319288013503,-1.3280178606510162 1.1982929706573486,-2.1880801022052765 l0.10347053408622742,-1.8896502256393433 m27.168309688568115,-0.9767898917198181 l0.00015889690985204652,5.126506090164185 3.0985450744628906,-0.00035199205740354955 l0.00018120421373168938,-4.08799946308136 -0.5366969108581543,-0.8946087211370468 m-1.2293623387813568,6.0081928968429565 l0.7372310757637024,0.00018324251868762076 2.426834851503372,-0.00033831747714430094 l0.5452266335487366,-0.7361932098865509 -0.008336520404554904,-0.9952060133218765 l-1.3795511424541473,-0.00015656025425414555 " fill="none" stroke="black" stroke-width="1" /></svg>